<?xml version="1.0" encoding="utf-8" standalone="no"?>
<!DOCTYPE svg PUBLIC "-//W3C//DTD SVG 1.1//EN"
  "http://www.w3.org/Graphics/SVG/1.1/DTD/svg11.dtd">
<svg xmlns:xlink="http://www.w3.org/1999/xlink" width="764.214531pt" height="186.310125pt" viewBox="0 0 764.214531 186.310125" xmlns="http://www.w3.org/2000/svg" version="1.1">
 <metadata>
  <rdf:RDF xmlns:dc="http://purl.org/dc/elements/1.1/" xmlns:cc="http://creativecommons.org/ns#" xmlns:rdf="http://www.w3.org/1999/02/22-rdf-syntax-ns#">
   <cc:Work>
    <dc:type rdf:resource="http://purl.org/dc/dcmitype/StillImage"/>
    <dc:date>2024-06-24T21:35:17.983287</dc:date>
    <dc:format>image/svg+xml</dc:format>
    <dc:creator>
     <cc:Agent>
      <dc:title>Matplotlib v3.7.2, https://matplotlib.org/</dc:title>
     </cc:Agent>
    </dc:creator>
   </cc:Work>
  </rdf:RDF>
 </metadata>
 <defs>
  <style type="text/css">*{stroke-linejoin: round; stroke-linecap: butt}</style>
 </defs>
 <g id="figure_1">
  <g id="patch_1">
   <path d="M 0 186.310125 
L 764.214531 186.310125 
L 764.214531 0 
L 0 0 
z
" style="fill: #ffffff"/>
  </g>
  <g id="axes_1">
   <g id="line2d_1">
    <path d="M 31.614531 146.9088 
L 757.014531 146.9088 
" clip-path="url(#pce3c6b9f56)" style="fill: none; stroke: #000000; stroke-width: 1.5; stroke-linecap: square"/>
   </g>
   <g id="line2d_2">
    <path d="M 187.719198 115.8624 
L 187.719198 146.9088 
" clip-path="url(#pce3c6b9f56)" style="fill: none; stroke: #000000; stroke-width: 0.5; stroke-linecap: square"/>
   </g>
   <g id="line2d_3">
    <path d="M 690.416658 115.8624 
L 690.416658 146.9088 
" clip-path="url(#pce3c6b9f56)" style="fill: none; stroke: #000000; stroke-width: 0.5; stroke-linecap: square"/>
   </g>
   <g id="line2d_4">
    <path d="M 259.01668 115.8624 
L 259.01668 146.9088 
" clip-path="url(#pce3c6b9f56)" style="fill: none; stroke: #000000; stroke-width: 0.5; stroke-linecap: square"/>
   </g>
   <g id="line2d_5">
    <path d="M 60.655703 84.816 
L 60.655703 115.8624 
" clip-path="url(#pce3c6b9f56)" style="fill: none; stroke: #000000; stroke-width: 0.5; stroke-linecap: square"/>
   </g>
   <g id="line2d_6">
    <path d="M 111.768969 38.2464 
L 111.768969 115.8624 
" clip-path="url(#pce3c6b9f56)" style="fill: none; stroke: #000000; stroke-width: 0.5; stroke-linecap: square"/>
   </g>
   <g id="line2d_7">
    <path d="M 292.891352 84.816 
L 292.891352 146.9088 
" clip-path="url(#pce3c6b9f56)" style="fill: none; stroke: #000000; stroke-width: 0.5; stroke-linecap: square"/>
   </g>
   <g id="line2d_8">
    <path d="M 514.683427 84.816 
L 514.683427 146.9088 
" clip-path="url(#pce3c6b9f56)" style="fill: none; stroke: #000000; stroke-width: 0.5; stroke-linecap: square"/>
   </g>
   <g id="line2d_9">
    <path d="M 227.786374 53.7696 
L 227.786374 146.9088 
" clip-path="url(#pce3c6b9f56)" style="fill: none; stroke: #000000; stroke-width: 0.5; stroke-linecap: square"/>
   </g>
   <g id="line2d_10">
    <path d="M 447.168393 84.816 
L 447.168393 146.9088 
" clip-path="url(#pce3c6b9f56)" style="fill: none; stroke: #000000; stroke-width: 0.5; stroke-linecap: square"/>
   </g>
   <g id="line2d_11">
    <path d="M 217.275853 84.816 
L 217.275853 146.9088 
" clip-path="url(#pce3c6b9f56)" style="fill: none; stroke: #000000; stroke-width: 0.5; stroke-linecap: square"/>
   </g>
   <g id="line2d_12">
    <path d="M 665.077599 84.816 
L 665.077599 146.9088 
" clip-path="url(#pce3c6b9f56)" style="fill: none; stroke: #000000; stroke-width: 0.5; stroke-linecap: square"/>
   </g>
   <g id="line2d_13">
    <path d="M 437.628589 115.8624 
L 437.628589 146.9088 
" clip-path="url(#pce3c6b9f56)" style="fill: none; stroke: #000000; stroke-width: 0.5; stroke-linecap: square"/>
   </g>
   <g id="line2d_14">
    <path d="M 524.926163 115.8624 
L 524.926163 146.9088 
" clip-path="url(#pce3c6b9f56)" style="fill: none; stroke: #000000; stroke-width: 0.5; stroke-linecap: square"/>
   </g>
   <g id="patch_2">
    <path d="M 531.051722 139.9088 
Q 592.491577 139.9088 653.931433 139.9088 
L 653.931433 139.9088 
Q 658.132123 143.4088 662.332814 146.9088 
Q 658.132123 150.4088 653.931433 153.9088 
L 653.931433 153.9088 
Q 592.491577 153.9088 531.051722 153.9088 
L 531.051722 139.9088 
z
" clip-path="url(#pce3c6b9f56)" style="fill: #d1e9f1; stroke: #000000; stroke-linecap: round"/>
   </g>
   <g id="patch_3">
    <path d="M 301.69475 139.9088 
Q 360.591712 139.9088 419.488674 139.9088 
L 419.488674 139.9088 
Q 423.688311 143.4088 427.887947 146.9088 
Q 423.688311 150.4088 419.488674 153.9088 
L 419.488674 153.9088 
Q 360.591712 153.9088 301.69475 153.9088 
L 301.69475 139.9088 
z
" clip-path="url(#pce3c6b9f56)" style="fill: #d1e9f1; stroke: #000000; stroke-linecap: round"/>
   </g>
   <g id="patch_4">
    <path d="M 34.312455 139.9088 
Q 89.023316 139.9088 143.734177 139.9088 
L 143.734177 139.9088 
Q 147.935789 143.4088 152.137402 146.9088 
Q 147.935789 150.4088 143.734177 153.9088 
L 143.734177 153.9088 
Q 89.023316 153.9088 34.312455 153.9088 
L 34.312455 139.9088 
z
" clip-path="url(#pce3c6b9f56)" style="fill: #00008b; stroke: #000000; stroke-linecap: round"/>
   </g>
   <g id="patch_5">
    <path d="M 215.401366 153.9088 
Q 191.917817 153.9088 168.434269 153.9088 
L 168.434269 153.9088 
Q 164.235649 150.4088 160.037029 146.9088 
Q 164.235649 143.4088 168.434269 139.9088 
L 168.434269 139.9088 
Q 191.917817 139.9088 215.401366 139.9088 
L 215.401366 153.9088 
z
" clip-path="url(#pce3c6b9f56)" style="fill: #d1e9f1; stroke: #000000; stroke-linecap: round"/>
   </g>
   <g id="patch_6">
    <path d="M 503.938595 153.9088 
Q 484.037689 153.9088 464.136783 153.9088 
L 464.136783 153.9088 
Q 459.937131 150.4088 455.73748 146.9088 
Q 459.937131 143.4088 464.136783 139.9088 
L 464.136783 139.9088 
Q 484.037689 139.9088 503.938595 139.9088 
L 503.938595 153.9088 
z
" clip-path="url(#pce3c6b9f56)" style="fill: #ffd383; stroke: #000000; stroke-linecap: round"/>
   </g>
   <g id="patch_7">
    <path d="M 666.952087 139.9088 
Q 686.216122 139.9088 705.480156 139.9088 
L 705.480156 139.9088 
Q 709.680692 143.4088 713.881228 146.9088 
Q 709.680692 150.4088 705.480156 153.9088 
L 705.480156 153.9088 
Q 686.216122 153.9088 666.952087 153.9088 
L 666.952087 139.9088 
z
" clip-path="url(#pce3c6b9f56)" style="fill: #d1e9f1; stroke: #000000; stroke-linecap: round"/>
   </g>
   <g id="patch_8">
    <path d="M 281.81179 153.9088 
Q 263.217024 153.9088 244.622258 153.9088 
L 244.622258 153.9088 
Q 240.421914 150.4088 236.221569 146.9088 
Q 240.421914 143.4088 244.622258 139.9088 
L 244.622258 139.9088 
Q 263.217024 139.9088 281.81179 139.9088 
L 281.81179 153.9088 
z
" clip-path="url(#pce3c6b9f56)" style="fill: #ffd383; stroke: #000000; stroke-linecap: round"/>
   </g>
   <g id="patch_9">
    <path d="M 83.18303 122.8624 
Q 64.856203 122.8624 46.529375 122.8624 
L 46.529375 122.8624 
Q 42.328876 119.3624 38.128377 115.8624 
Q 42.328876 112.3624 46.529375 108.8624 
L 46.529375 108.8624 
Q 64.856203 108.8624 83.18303 108.8624 
L 83.18303 122.8624 
z
" clip-path="url(#pce3c6b9f56)" style="fill: #ffff00; stroke: #000000; stroke-linecap: round"/>
   </g>
   <g id="patch_10">
    <path d="M 133.861146 122.8624 
Q 115.969233 122.8624 98.07732 122.8624 
L 98.07732 122.8624 
Q 93.877056 119.3624 89.676791 115.8624 
Q 93.877056 112.3624 98.07732 108.8624 
L 98.07732 108.8624 
Q 115.969233 108.8624 133.861146 108.8624 
L 133.861146 122.8624 
z
" clip-path="url(#pce3c6b9f56)" style="fill: #ffd383; stroke: #000000; stroke-linecap: round"/>
   </g>
   <g id="patch_11">
    <path d="M 301.293074 153.9088 
Q 297.090162 153.9088 292.88725 153.9088 
L 292.88725 153.9088 
Q 288.68844 150.4088 284.48963 146.9088 
Q 288.68844 143.4088 292.88725 139.9088 
L 292.88725 139.9088 
Q 297.090162 139.9088 301.293074 139.9088 
L 301.293074 153.9088 
z
" clip-path="url(#pce3c6b9f56)" style="fill: #ff0000; stroke: #000000; stroke-linecap: round"/>
   </g>
   <g id="patch_12">
    <path d="M 523.085149 153.9088 
Q 518.882236 153.9088 514.679324 153.9088 
L 514.679324 153.9088 
Q 510.480514 150.4088 506.281704 146.9088 
Q 510.480514 143.4088 514.679324 139.9088 
L 514.679324 139.9088 
Q 518.882236 139.9088 523.085149 139.9088 
L 523.085149 153.9088 
z
" clip-path="url(#pce3c6b9f56)" style="fill: #ff0000; stroke: #000000; stroke-linecap: round"/>
   </g>
   <g id="patch_13">
    <path d="M 235.485163 153.9088 
Q 231.987252 153.9088 228.48934 153.9088 
L 228.48934 153.9088 
Q 224.288462 150.4088 220.087585 146.9088 
Q 224.288462 143.4088 228.48934 139.9088 
L 228.48934 139.9088 
Q 231.987252 139.9088 235.485163 139.9088 
L 235.485163 153.9088 
z
" clip-path="url(#pce3c6b9f56)" style="fill: #ff0000; stroke: #000000; stroke-linecap: round"/>
   </g>
   <g id="patch_14">
    <path d="M 454.867182 153.9088 
Q 451.36927 153.9088 447.871358 153.9088 
L 447.871358 153.9088 
Q 443.670481 150.4088 439.469604 146.9088 
Q 443.670481 143.4088 447.871358 139.9088 
L 447.871358 139.9088 
Q 451.36927 139.9088 454.867182 139.9088 
L 454.867182 153.9088 
z
" clip-path="url(#pce3c6b9f56)" style="fill: #ff0000; stroke: #000000; stroke-linecap: round"/>
   </g>
   <g id="patch_15">
    <path d="M 215.401366 139.9088 
Q 215.974329 139.9088 216.547293 139.9088 
L 216.547293 139.9088 
Q 217.848817 143.4088 219.150341 146.9088 
Q 217.848817 150.4088 216.547293 153.9088 
L 216.547293 153.9088 
Q 215.974329 153.9088 215.401366 153.9088 
L 215.401366 139.9088 
z
" clip-path="url(#pce3c6b9f56)" style="fill: #fbf3f6; stroke: #000000; stroke-linecap: round"/>
   </g>
   <g id="patch_16">
    <path d="M 666.952087 153.9088 
Q 666.379124 153.9088 665.80616 153.9088 
L 665.80616 153.9088 
Q 664.504636 150.4088 663.203112 146.9088 
Q 664.504636 143.4088 665.80616 139.9088 
L 665.80616 139.9088 
Q 666.379124 139.9088 666.952087 139.9088 
L 666.952087 153.9088 
z
" clip-path="url(#pce3c6b9f56)" style="fill: #fbf3f6; stroke: #000000; stroke-linecap: round"/>
   </g>
   <g id="patch_17">
    <path d="M 436.323142 139.9088 
Q 436.72217 139.9088 437.121198 139.9088 
L 437.121198 139.9088 
Q 438.027617 143.4088 438.934036 146.9088 
Q 438.027617 150.4088 437.121198 153.9088 
L 437.121198 153.9088 
Q 436.72217 153.9088 436.323142 153.9088 
L 436.323142 139.9088 
z
" clip-path="url(#pce3c6b9f56)" style="fill: #fbf3f6; stroke: #000000; stroke-linecap: round"/>
   </g>
   <g id="patch_18">
    <path d="M 526.23161 153.9088 
Q 525.832582 153.9088 525.433554 153.9088 
L 525.433554 153.9088 
Q 524.527135 150.4088 523.620717 146.9088 
Q 524.527135 143.4088 525.433554 139.9088 
L 525.433554 139.9088 
Q 525.832582 139.9088 526.23161 139.9088 
L 526.23161 153.9088 
z
" clip-path="url(#pce3c6b9f56)" style="fill: #fbf3f6; stroke: #000000; stroke-linecap: round"/>
   </g>
   <g id="matplotlib.axis_1">
    <g id="xtick_1">
     <g id="line2d_15">
      <defs>
       <path id="mc68921c85d" d="M 0 0 
L 0 3.5 
" style="stroke: #808080; stroke-width: 0.8"/>
      </defs>
      <g>
       <use xlink:href="#mc68921c85d" x="31.668088" y="162.432" style="fill: #808080; stroke: #808080; stroke-width: 0.8"/>
      </g>
     </g>
     <g id="text_1">
      <!-- 0 -->
      <g style="fill: #808080" transform="translate(28.486838 177.030437) scale(0.1 -0.1)">
       <defs>
        <path id="DejaVuSans-30" d="M 2034 4250 
Q 1547 4250 1301 3770 
Q 1056 3291 1056 2328 
Q 1056 1369 1301 889 
Q 1547 409 2034 409 
Q 2525 409 2770 889 
Q 3016 1369 3016 2328 
Q 3016 3291 2770 3770 
Q 2525 4250 2034 4250 
z
M 2034 4750 
Q 2819 4750 3233 4129 
Q 3647 3509 3647 2328 
Q 3647 1150 3233 529 
Q 2819 -91 2034 -91 
Q 1250 -91 836 529 
Q 422 1150 422 2328 
Q 422 3509 836 4129 
Q 1250 4750 2034 4750 
z
" transform="scale(0.015625)"/>
       </defs>
       <use xlink:href="#DejaVuSans-30"/>
      </g>
     </g>
    </g>
    <g id="xtick_2">
     <g id="line2d_16">
      <g>
       <use xlink:href="#mc68921c85d" x="132.087077" y="162.432" style="fill: #808080; stroke: #808080; stroke-width: 0.8"/>
      </g>
     </g>
     <g id="text_2">
      <!-- 1,500 -->
      <g style="fill: #808080" transform="translate(117.773015 177.030437) scale(0.1 -0.1)">
       <defs>
        <path id="DejaVuSans-31" d="M 794 531 
L 1825 531 
L 1825 4091 
L 703 3866 
L 703 4441 
L 1819 4666 
L 2450 4666 
L 2450 531 
L 3481 531 
L 3481 0 
L 794 0 
L 794 531 
z
" transform="scale(0.015625)"/>
        <path id="DejaVuSans-2c" d="M 750 794 
L 1409 794 
L 1409 256 
L 897 -744 
L 494 -744 
L 750 256 
L 750 794 
z
" transform="scale(0.015625)"/>
        <path id="DejaVuSans-35" d="M 691 4666 
L 3169 4666 
L 3169 4134 
L 1269 4134 
L 1269 2991 
Q 1406 3038 1543 3061 
Q 1681 3084 1819 3084 
Q 2600 3084 3056 2656 
Q 3513 2228 3513 1497 
Q 3513 744 3044 326 
Q 2575 -91 1722 -91 
Q 1428 -91 1123 -41 
Q 819 9 494 109 
L 494 744 
Q 775 591 1075 516 
Q 1375 441 1709 441 
Q 2250 441 2565 725 
Q 2881 1009 2881 1497 
Q 2881 1984 2565 2268 
Q 2250 2553 1709 2553 
Q 1456 2553 1204 2497 
Q 953 2441 691 2322 
L 691 4666 
z
" transform="scale(0.015625)"/>
       </defs>
       <use xlink:href="#DejaVuSans-31"/>
       <use xlink:href="#DejaVuSans-2c" x="63.623047"/>
       <use xlink:href="#DejaVuSans-35" x="95.410156"/>
       <use xlink:href="#DejaVuSans-30" x="159.033203"/>
       <use xlink:href="#DejaVuSans-30" x="222.65625"/>
      </g>
     </g>
    </g>
    <g id="xtick_3">
     <g id="line2d_17">
      <g>
       <use xlink:href="#mc68921c85d" x="232.506067" y="162.432" style="fill: #808080; stroke: #808080; stroke-width: 0.8"/>
      </g>
     </g>
     <g id="text_3">
      <!-- 3,000 -->
      <g style="fill: #808080" transform="translate(218.192004 177.030437) scale(0.1 -0.1)">
       <defs>
        <path id="DejaVuSans-33" d="M 2597 2516 
Q 3050 2419 3304 2112 
Q 3559 1806 3559 1356 
Q 3559 666 3084 287 
Q 2609 -91 1734 -91 
Q 1441 -91 1130 -33 
Q 819 25 488 141 
L 488 750 
Q 750 597 1062 519 
Q 1375 441 1716 441 
Q 2309 441 2620 675 
Q 2931 909 2931 1356 
Q 2931 1769 2642 2001 
Q 2353 2234 1838 2234 
L 1294 2234 
L 1294 2753 
L 1863 2753 
Q 2328 2753 2575 2939 
Q 2822 3125 2822 3475 
Q 2822 3834 2567 4026 
Q 2313 4219 1838 4219 
Q 1578 4219 1281 4162 
Q 984 4106 628 3988 
L 628 4550 
Q 988 4650 1302 4700 
Q 1616 4750 1894 4750 
Q 2613 4750 3031 4423 
Q 3450 4097 3450 3541 
Q 3450 3153 3228 2886 
Q 3006 2619 2597 2516 
z
" transform="scale(0.015625)"/>
       </defs>
       <use xlink:href="#DejaVuSans-33"/>
       <use xlink:href="#DejaVuSans-2c" x="63.623047"/>
       <use xlink:href="#DejaVuSans-30" x="95.410156"/>
       <use xlink:href="#DejaVuSans-30" x="159.033203"/>
       <use xlink:href="#DejaVuSans-30" x="222.65625"/>
      </g>
     </g>
    </g>
    <g id="xtick_4">
     <g id="line2d_18">
      <g>
       <use xlink:href="#mc68921c85d" x="332.925056" y="162.432" style="fill: #808080; stroke: #808080; stroke-width: 0.8"/>
      </g>
     </g>
     <g id="text_4">
      <!-- 4,500 -->
      <g style="fill: #808080" transform="translate(318.610993 177.030437) scale(0.1 -0.1)">
       <defs>
        <path id="DejaVuSans-34" d="M 2419 4116 
L 825 1625 
L 2419 1625 
L 2419 4116 
z
M 2253 4666 
L 3047 4666 
L 3047 1625 
L 3713 1625 
L 3713 1100 
L 3047 1100 
L 3047 0 
L 2419 0 
L 2419 1100 
L 313 1100 
L 313 1709 
L 2253 4666 
z
" transform="scale(0.015625)"/>
       </defs>
       <use xlink:href="#DejaVuSans-34"/>
       <use xlink:href="#DejaVuSans-2c" x="63.623047"/>
       <use xlink:href="#DejaVuSans-35" x="95.410156"/>
       <use xlink:href="#DejaVuSans-30" x="159.033203"/>
       <use xlink:href="#DejaVuSans-30" x="222.65625"/>
      </g>
     </g>
    </g>
    <g id="xtick_5">
     <g id="line2d_19">
      <g>
       <use xlink:href="#mc68921c85d" x="433.344045" y="162.432" style="fill: #808080; stroke: #808080; stroke-width: 0.8"/>
      </g>
     </g>
     <g id="text_5">
      <!-- 6,000 -->
      <g style="fill: #808080" transform="translate(419.029983 177.030437) scale(0.1 -0.1)">
       <defs>
        <path id="DejaVuSans-36" d="M 2113 2584 
Q 1688 2584 1439 2293 
Q 1191 2003 1191 1497 
Q 1191 994 1439 701 
Q 1688 409 2113 409 
Q 2538 409 2786 701 
Q 3034 994 3034 1497 
Q 3034 2003 2786 2293 
Q 2538 2584 2113 2584 
z
M 3366 4563 
L 3366 3988 
Q 3128 4100 2886 4159 
Q 2644 4219 2406 4219 
Q 1781 4219 1451 3797 
Q 1122 3375 1075 2522 
Q 1259 2794 1537 2939 
Q 1816 3084 2150 3084 
Q 2853 3084 3261 2657 
Q 3669 2231 3669 1497 
Q 3669 778 3244 343 
Q 2819 -91 2113 -91 
Q 1303 -91 875 529 
Q 447 1150 447 2328 
Q 447 3434 972 4092 
Q 1497 4750 2381 4750 
Q 2619 4750 2861 4703 
Q 3103 4656 3366 4563 
z
" transform="scale(0.015625)"/>
       </defs>
       <use xlink:href="#DejaVuSans-36"/>
       <use xlink:href="#DejaVuSans-2c" x="63.623047"/>
       <use xlink:href="#DejaVuSans-30" x="95.410156"/>
       <use xlink:href="#DejaVuSans-30" x="159.033203"/>
       <use xlink:href="#DejaVuSans-30" x="222.65625"/>
      </g>
     </g>
    </g>
    <g id="xtick_6">
     <g id="line2d_20">
      <g>
       <use xlink:href="#mc68921c85d" x="533.763035" y="162.432" style="fill: #808080; stroke: #808080; stroke-width: 0.8"/>
      </g>
     </g>
     <g id="text_6">
      <!-- 7,500 -->
      <g style="fill: #808080" transform="translate(519.448972 177.030437) scale(0.1 -0.1)">
       <defs>
        <path id="DejaVuSans-37" d="M 525 4666 
L 3525 4666 
L 3525 4397 
L 1831 0 
L 1172 0 
L 2766 4134 
L 525 4134 
L 525 4666 
z
" transform="scale(0.015625)"/>
       </defs>
       <use xlink:href="#DejaVuSans-37"/>
       <use xlink:href="#DejaVuSans-2c" x="63.623047"/>
       <use xlink:href="#DejaVuSans-35" x="95.410156"/>
       <use xlink:href="#DejaVuSans-30" x="159.033203"/>
       <use xlink:href="#DejaVuSans-30" x="222.65625"/>
      </g>
     </g>
    </g>
    <g id="xtick_7">
     <g id="line2d_21">
      <g>
       <use xlink:href="#mc68921c85d" x="634.182024" y="162.432" style="fill: #808080; stroke: #808080; stroke-width: 0.8"/>
      </g>
     </g>
     <g id="text_7">
      <!-- 9,000 -->
      <g style="fill: #808080" transform="translate(619.867961 177.030437) scale(0.1 -0.1)">
       <defs>
        <path id="DejaVuSans-39" d="M 703 97 
L 703 672 
Q 941 559 1184 500 
Q 1428 441 1663 441 
Q 2288 441 2617 861 
Q 2947 1281 2994 2138 
Q 2813 1869 2534 1725 
Q 2256 1581 1919 1581 
Q 1219 1581 811 2004 
Q 403 2428 403 3163 
Q 403 3881 828 4315 
Q 1253 4750 1959 4750 
Q 2769 4750 3195 4129 
Q 3622 3509 3622 2328 
Q 3622 1225 3098 567 
Q 2575 -91 1691 -91 
Q 1453 -91 1209 -44 
Q 966 3 703 97 
z
M 1959 2075 
Q 2384 2075 2632 2365 
Q 2881 2656 2881 3163 
Q 2881 3666 2632 3958 
Q 2384 4250 1959 4250 
Q 1534 4250 1286 3958 
Q 1038 3666 1038 3163 
Q 1038 2656 1286 2365 
Q 1534 2075 1959 2075 
z
" transform="scale(0.015625)"/>
       </defs>
       <use xlink:href="#DejaVuSans-39"/>
       <use xlink:href="#DejaVuSans-2c" x="63.623047"/>
       <use xlink:href="#DejaVuSans-30" x="95.410156"/>
       <use xlink:href="#DejaVuSans-30" x="159.033203"/>
       <use xlink:href="#DejaVuSans-30" x="222.65625"/>
      </g>
     </g>
    </g>
    <g id="xtick_8">
     <g id="line2d_22">
      <g>
       <use xlink:href="#mc68921c85d" x="734.601013" y="162.432" style="fill: #808080; stroke: #808080; stroke-width: 0.8"/>
      </g>
     </g>
     <g id="text_8">
      <!-- 10,500 -->
      <g style="fill: #808080" transform="translate(717.105701 177.030437) scale(0.1 -0.1)">
       <use xlink:href="#DejaVuSans-31"/>
       <use xlink:href="#DejaVuSans-30" x="63.623047"/>
       <use xlink:href="#DejaVuSans-2c" x="127.246094"/>
       <use xlink:href="#DejaVuSans-35" x="159.033203"/>
       <use xlink:href="#DejaVuSans-30" x="222.65625"/>
       <use xlink:href="#DejaVuSans-30" x="286.279297"/>
      </g>
     </g>
    </g>
   </g>
   <g id="text_9">
    <!-- dsx homology arm -->
    <g transform="translate(545.477815 149.944112) scale(0.11 -0.11)">
     <defs>
      <path id="DejaVuSans-64" d="M 2906 2969 
L 2906 4863 
L 3481 4863 
L 3481 0 
L 2906 0 
L 2906 525 
Q 2725 213 2448 61 
Q 2172 -91 1784 -91 
Q 1150 -91 751 415 
Q 353 922 353 1747 
Q 353 2572 751 3078 
Q 1150 3584 1784 3584 
Q 2172 3584 2448 3432 
Q 2725 3281 2906 2969 
z
M 947 1747 
Q 947 1113 1208 752 
Q 1469 391 1925 391 
Q 2381 391 2643 752 
Q 2906 1113 2906 1747 
Q 2906 2381 2643 2742 
Q 2381 3103 1925 3103 
Q 1469 3103 1208 2742 
Q 947 2381 947 1747 
z
" transform="scale(0.015625)"/>
      <path id="DejaVuSans-73" d="M 2834 3397 
L 2834 2853 
Q 2591 2978 2328 3040 
Q 2066 3103 1784 3103 
Q 1356 3103 1142 2972 
Q 928 2841 928 2578 
Q 928 2378 1081 2264 
Q 1234 2150 1697 2047 
L 1894 2003 
Q 2506 1872 2764 1633 
Q 3022 1394 3022 966 
Q 3022 478 2636 193 
Q 2250 -91 1575 -91 
Q 1294 -91 989 -36 
Q 684 19 347 128 
L 347 722 
Q 666 556 975 473 
Q 1284 391 1588 391 
Q 1994 391 2212 530 
Q 2431 669 2431 922 
Q 2431 1156 2273 1281 
Q 2116 1406 1581 1522 
L 1381 1569 
Q 847 1681 609 1914 
Q 372 2147 372 2553 
Q 372 3047 722 3315 
Q 1072 3584 1716 3584 
Q 2034 3584 2315 3537 
Q 2597 3491 2834 3397 
z
" transform="scale(0.015625)"/>
      <path id="DejaVuSans-78" d="M 3513 3500 
L 2247 1797 
L 3578 0 
L 2900 0 
L 1881 1375 
L 863 0 
L 184 0 
L 1544 1831 
L 300 3500 
L 978 3500 
L 1906 2253 
L 2834 3500 
L 3513 3500 
z
" transform="scale(0.015625)"/>
      <path id="DejaVuSans-20" transform="scale(0.015625)"/>
      <path id="DejaVuSans-68" d="M 3513 2113 
L 3513 0 
L 2938 0 
L 2938 2094 
Q 2938 2591 2744 2837 
Q 2550 3084 2163 3084 
Q 1697 3084 1428 2787 
Q 1159 2491 1159 1978 
L 1159 0 
L 581 0 
L 581 4863 
L 1159 4863 
L 1159 2956 
Q 1366 3272 1645 3428 
Q 1925 3584 2291 3584 
Q 2894 3584 3203 3211 
Q 3513 2838 3513 2113 
z
" transform="scale(0.015625)"/>
      <path id="DejaVuSans-6f" d="M 1959 3097 
Q 1497 3097 1228 2736 
Q 959 2375 959 1747 
Q 959 1119 1226 758 
Q 1494 397 1959 397 
Q 2419 397 2687 759 
Q 2956 1122 2956 1747 
Q 2956 2369 2687 2733 
Q 2419 3097 1959 3097 
z
M 1959 3584 
Q 2709 3584 3137 3096 
Q 3566 2609 3566 1747 
Q 3566 888 3137 398 
Q 2709 -91 1959 -91 
Q 1206 -91 779 398 
Q 353 888 353 1747 
Q 353 2609 779 3096 
Q 1206 3584 1959 3584 
z
" transform="scale(0.015625)"/>
      <path id="DejaVuSans-6d" d="M 3328 2828 
Q 3544 3216 3844 3400 
Q 4144 3584 4550 3584 
Q 5097 3584 5394 3201 
Q 5691 2819 5691 2113 
L 5691 0 
L 5113 0 
L 5113 2094 
Q 5113 2597 4934 2840 
Q 4756 3084 4391 3084 
Q 3944 3084 3684 2787 
Q 3425 2491 3425 1978 
L 3425 0 
L 2847 0 
L 2847 2094 
Q 2847 2600 2669 2842 
Q 2491 3084 2119 3084 
Q 1678 3084 1418 2786 
Q 1159 2488 1159 1978 
L 1159 0 
L 581 0 
L 581 3500 
L 1159 3500 
L 1159 2956 
Q 1356 3278 1631 3431 
Q 1906 3584 2284 3584 
Q 2666 3584 2933 3390 
Q 3200 3197 3328 2828 
z
" transform="scale(0.015625)"/>
      <path id="DejaVuSans-6c" d="M 603 4863 
L 1178 4863 
L 1178 0 
L 603 0 
L 603 4863 
z
" transform="scale(0.015625)"/>
      <path id="DejaVuSans-67" d="M 2906 1791 
Q 2906 2416 2648 2759 
Q 2391 3103 1925 3103 
Q 1463 3103 1205 2759 
Q 947 2416 947 1791 
Q 947 1169 1205 825 
Q 1463 481 1925 481 
Q 2391 481 2648 825 
Q 2906 1169 2906 1791 
z
M 3481 434 
Q 3481 -459 3084 -895 
Q 2688 -1331 1869 -1331 
Q 1566 -1331 1297 -1286 
Q 1028 -1241 775 -1147 
L 775 -588 
Q 1028 -725 1275 -790 
Q 1522 -856 1778 -856 
Q 2344 -856 2625 -561 
Q 2906 -266 2906 331 
L 2906 616 
Q 2728 306 2450 153 
Q 2172 0 1784 0 
Q 1141 0 747 490 
Q 353 981 353 1791 
Q 353 2603 747 3093 
Q 1141 3584 1784 3584 
Q 2172 3584 2450 3431 
Q 2728 3278 2906 2969 
L 2906 3500 
L 3481 3500 
L 3481 434 
z
" transform="scale(0.015625)"/>
      <path id="DejaVuSans-79" d="M 2059 -325 
Q 1816 -950 1584 -1140 
Q 1353 -1331 966 -1331 
L 506 -1331 
L 506 -850 
L 844 -850 
Q 1081 -850 1212 -737 
Q 1344 -625 1503 -206 
L 1606 56 
L 191 3500 
L 800 3500 
L 1894 763 
L 2988 3500 
L 3597 3500 
L 2059 -325 
z
" transform="scale(0.015625)"/>
      <path id="DejaVuSans-61" d="M 2194 1759 
Q 1497 1759 1228 1600 
Q 959 1441 959 1056 
Q 959 750 1161 570 
Q 1363 391 1709 391 
Q 2188 391 2477 730 
Q 2766 1069 2766 1631 
L 2766 1759 
L 2194 1759 
z
M 3341 1997 
L 3341 0 
L 2766 0 
L 2766 531 
Q 2569 213 2275 61 
Q 1981 -91 1556 -91 
Q 1019 -91 701 211 
Q 384 513 384 1019 
Q 384 1609 779 1909 
Q 1175 2209 1959 2209 
L 2766 2209 
L 2766 2266 
Q 2766 2663 2505 2880 
Q 2244 3097 1772 3097 
Q 1472 3097 1187 3025 
Q 903 2953 641 2809 
L 641 3341 
Q 956 3463 1253 3523 
Q 1550 3584 1831 3584 
Q 2591 3584 2966 3190 
Q 3341 2797 3341 1997 
z
" transform="scale(0.015625)"/>
      <path id="DejaVuSans-72" d="M 2631 2963 
Q 2534 3019 2420 3045 
Q 2306 3072 2169 3072 
Q 1681 3072 1420 2755 
Q 1159 2438 1159 1844 
L 1159 0 
L 581 0 
L 581 3500 
L 1159 3500 
L 1159 2956 
Q 1341 3275 1631 3429 
Q 1922 3584 2338 3584 
Q 2397 3584 2469 3576 
Q 2541 3569 2628 3553 
L 2631 2963 
z
" transform="scale(0.015625)"/>
     </defs>
     <use xlink:href="#DejaVuSans-64"/>
     <use xlink:href="#DejaVuSans-73" x="63.476562"/>
     <use xlink:href="#DejaVuSans-78" x="115.576172"/>
     <use xlink:href="#DejaVuSans-20" x="174.755859"/>
     <use xlink:href="#DejaVuSans-68" x="206.542969"/>
     <use xlink:href="#DejaVuSans-6f" x="269.921875"/>
     <use xlink:href="#DejaVuSans-6d" x="331.103516"/>
     <use xlink:href="#DejaVuSans-6f" x="428.515625"/>
     <use xlink:href="#DejaVuSans-6c" x="489.697266"/>
     <use xlink:href="#DejaVuSans-6f" x="517.480469"/>
     <use xlink:href="#DejaVuSans-67" x="578.662109"/>
     <use xlink:href="#DejaVuSans-79" x="642.138672"/>
     <use xlink:href="#DejaVuSans-20" x="701.318359"/>
     <use xlink:href="#DejaVuSans-61" x="733.105469"/>
     <use xlink:href="#DejaVuSans-72" x="794.384766"/>
     <use xlink:href="#DejaVuSans-6d" x="833.748047"/>
    </g>
   </g>
   <g id="text_10">
    <!-- dsx homology arm -->
    <g transform="translate(313.576895 149.944112) scale(0.11 -0.11)">
     <use xlink:href="#DejaVuSans-64"/>
     <use xlink:href="#DejaVuSans-73" x="63.476562"/>
     <use xlink:href="#DejaVuSans-78" x="115.576172"/>
     <use xlink:href="#DejaVuSans-20" x="174.755859"/>
     <use xlink:href="#DejaVuSans-68" x="206.542969"/>
     <use xlink:href="#DejaVuSans-6f" x="269.921875"/>
     <use xlink:href="#DejaVuSans-6d" x="331.103516"/>
     <use xlink:href="#DejaVuSans-6f" x="428.515625"/>
     <use xlink:href="#DejaVuSans-6c" x="489.697266"/>
     <use xlink:href="#DejaVuSans-6f" x="517.480469"/>
     <use xlink:href="#DejaVuSans-67" x="578.662109"/>
     <use xlink:href="#DejaVuSans-79" x="642.138672"/>
     <use xlink:href="#DejaVuSans-20" x="701.318359"/>
     <use xlink:href="#DejaVuSans-61" x="733.105469"/>
     <use xlink:href="#DejaVuSans-72" x="794.384766"/>
     <use xlink:href="#DejaVuSans-6d" x="833.748047"/>
    </g>
   </g>
   <g id="text_11">
    <!-- backbone -->
    <g style="fill: #ffffff" transform="translate(66.427038 149.944112) scale(0.11 -0.11)">
     <defs>
      <path id="DejaVuSans-62" d="M 3116 1747 
Q 3116 2381 2855 2742 
Q 2594 3103 2138 3103 
Q 1681 3103 1420 2742 
Q 1159 2381 1159 1747 
Q 1159 1113 1420 752 
Q 1681 391 2138 391 
Q 2594 391 2855 752 
Q 3116 1113 3116 1747 
z
M 1159 2969 
Q 1341 3281 1617 3432 
Q 1894 3584 2278 3584 
Q 2916 3584 3314 3078 
Q 3713 2572 3713 1747 
Q 3713 922 3314 415 
Q 2916 -91 2278 -91 
Q 1894 -91 1617 61 
Q 1341 213 1159 525 
L 1159 0 
L 581 0 
L 581 4863 
L 1159 4863 
L 1159 2969 
z
" transform="scale(0.015625)"/>
      <path id="DejaVuSans-63" d="M 3122 3366 
L 3122 2828 
Q 2878 2963 2633 3030 
Q 2388 3097 2138 3097 
Q 1578 3097 1268 2742 
Q 959 2388 959 1747 
Q 959 1106 1268 751 
Q 1578 397 2138 397 
Q 2388 397 2633 464 
Q 2878 531 3122 666 
L 3122 134 
Q 2881 22 2623 -34 
Q 2366 -91 2075 -91 
Q 1284 -91 818 406 
Q 353 903 353 1747 
Q 353 2603 823 3093 
Q 1294 3584 2113 3584 
Q 2378 3584 2631 3529 
Q 2884 3475 3122 3366 
z
" transform="scale(0.015625)"/>
      <path id="DejaVuSans-6b" d="M 581 4863 
L 1159 4863 
L 1159 1991 
L 2875 3500 
L 3609 3500 
L 1753 1863 
L 3688 0 
L 2938 0 
L 1159 1709 
L 1159 0 
L 581 0 
L 581 4863 
z
" transform="scale(0.015625)"/>
      <path id="DejaVuSans-6e" d="M 3513 2113 
L 3513 0 
L 2938 0 
L 2938 2094 
Q 2938 2591 2744 2837 
Q 2550 3084 2163 3084 
Q 1697 3084 1428 2787 
Q 1159 2491 1159 1978 
L 1159 0 
L 581 0 
L 581 3500 
L 1159 3500 
L 1159 2956 
Q 1366 3272 1645 3428 
Q 1925 3584 2291 3584 
Q 2894 3584 3203 3211 
Q 3513 2838 3513 2113 
z
" transform="scale(0.015625)"/>
      <path id="DejaVuSans-65" d="M 3597 1894 
L 3597 1613 
L 953 1613 
Q 991 1019 1311 708 
Q 1631 397 2203 397 
Q 2534 397 2845 478 
Q 3156 559 3463 722 
L 3463 178 
Q 3153 47 2828 -22 
Q 2503 -91 2169 -91 
Q 1331 -91 842 396 
Q 353 884 353 1716 
Q 353 2575 817 3079 
Q 1281 3584 2069 3584 
Q 2775 3584 3186 3129 
Q 3597 2675 3597 1894 
z
M 3022 2063 
Q 3016 2534 2758 2815 
Q 2500 3097 2075 3097 
Q 1594 3097 1305 2825 
Q 1016 2553 972 2059 
L 3022 2063 
z
" transform="scale(0.015625)"/>
     </defs>
     <use xlink:href="#DejaVuSans-62"/>
     <use xlink:href="#DejaVuSans-61" x="63.476562"/>
     <use xlink:href="#DejaVuSans-63" x="124.755859"/>
     <use xlink:href="#DejaVuSans-6b" x="179.736328"/>
     <use xlink:href="#DejaVuSans-62" x="237.646484"/>
     <use xlink:href="#DejaVuSans-6f" x="301.123047"/>
     <use xlink:href="#DejaVuSans-6e" x="362.304688"/>
     <use xlink:href="#DejaVuSans-65" x="425.683594"/>
    </g>
   </g>
   <g id="text_12">
    <g id="patch_19">
     <path d="M 162.292869 124.485369 
L 213.145526 124.485369 
Q 216.445526 124.485369 216.445526 121.185369 
L 216.445526 110.539431 
Q 216.445526 107.239431 213.145526 107.239431 
L 162.292869 107.239431 
Q 158.992869 107.239431 158.992869 110.539431 
L 158.992869 121.185369 
Q 158.992869 124.485369 162.292869 124.485369 
z
" style="fill: #ffffff"/>
    </g>
    <!-- piggyBac -->
    <g transform="translate(162.292869 118.897712) scale(0.11 -0.11)">
     <defs>
      <path id="DejaVuSans-70" d="M 1159 525 
L 1159 -1331 
L 581 -1331 
L 581 3500 
L 1159 3500 
L 1159 2969 
Q 1341 3281 1617 3432 
Q 1894 3584 2278 3584 
Q 2916 3584 3314 3078 
Q 3713 2572 3713 1747 
Q 3713 922 3314 415 
Q 2916 -91 2278 -91 
Q 1894 -91 1617 61 
Q 1341 213 1159 525 
z
M 3116 1747 
Q 3116 2381 2855 2742 
Q 2594 3103 2138 3103 
Q 1681 3103 1420 2742 
Q 1159 2381 1159 1747 
Q 1159 1113 1420 752 
Q 1681 391 2138 391 
Q 2594 391 2855 752 
Q 3116 1113 3116 1747 
z
" transform="scale(0.015625)"/>
      <path id="DejaVuSans-69" d="M 603 3500 
L 1178 3500 
L 1178 0 
L 603 0 
L 603 3500 
z
M 603 4863 
L 1178 4863 
L 1178 4134 
L 603 4134 
L 603 4863 
z
" transform="scale(0.015625)"/>
      <path id="DejaVuSans-42" d="M 1259 2228 
L 1259 519 
L 2272 519 
Q 2781 519 3026 730 
Q 3272 941 3272 1375 
Q 3272 1813 3026 2020 
Q 2781 2228 2272 2228 
L 1259 2228 
z
M 1259 4147 
L 1259 2741 
L 2194 2741 
Q 2656 2741 2882 2914 
Q 3109 3088 3109 3444 
Q 3109 3797 2882 3972 
Q 2656 4147 2194 4147 
L 1259 4147 
z
M 628 4666 
L 2241 4666 
Q 2963 4666 3353 4366 
Q 3744 4066 3744 3513 
Q 3744 3084 3544 2831 
Q 3344 2578 2956 2516 
Q 3422 2416 3680 2098 
Q 3938 1781 3938 1306 
Q 3938 681 3513 340 
Q 3088 0 2303 0 
L 628 0 
L 628 4666 
z
" transform="scale(0.015625)"/>
     </defs>
     <use xlink:href="#DejaVuSans-70"/>
     <use xlink:href="#DejaVuSans-69" x="63.476562"/>
     <use xlink:href="#DejaVuSans-67" x="91.259766"/>
     <use xlink:href="#DejaVuSans-67" x="154.736328"/>
     <use xlink:href="#DejaVuSans-79" x="218.212891"/>
     <use xlink:href="#DejaVuSans-42" x="277.392578"/>
     <use xlink:href="#DejaVuSans-61" x="345.996094"/>
     <use xlink:href="#DejaVuSans-63" x="407.275391"/>
    </g>
   </g>
   <g id="text_13">
    <!-- GFP -->
    <g transform="translate(469.096709 149.944112) scale(0.11 -0.11)">
     <defs>
      <path id="DejaVuSans-47" d="M 3809 666 
L 3809 1919 
L 2778 1919 
L 2778 2438 
L 4434 2438 
L 4434 434 
Q 4069 175 3628 42 
Q 3188 -91 2688 -91 
Q 1594 -91 976 548 
Q 359 1188 359 2328 
Q 359 3472 976 4111 
Q 1594 4750 2688 4750 
Q 3144 4750 3555 4637 
Q 3966 4525 4313 4306 
L 4313 3634 
Q 3963 3931 3569 4081 
Q 3175 4231 2741 4231 
Q 1884 4231 1454 3753 
Q 1025 3275 1025 2328 
Q 1025 1384 1454 906 
Q 1884 428 2741 428 
Q 3075 428 3337 486 
Q 3600 544 3809 666 
z
" transform="scale(0.015625)"/>
      <path id="DejaVuSans-46" d="M 628 4666 
L 3309 4666 
L 3309 4134 
L 1259 4134 
L 1259 2759 
L 3109 2759 
L 3109 2228 
L 1259 2228 
L 1259 0 
L 628 0 
L 628 4666 
z
" transform="scale(0.015625)"/>
      <path id="DejaVuSans-50" d="M 1259 4147 
L 1259 2394 
L 2053 2394 
Q 2494 2394 2734 2622 
Q 2975 2850 2975 3272 
Q 2975 3691 2734 3919 
Q 2494 4147 2053 4147 
L 1259 4147 
z
M 628 4666 
L 2053 4666 
Q 2838 4666 3239 4311 
Q 3641 3956 3641 3272 
Q 3641 2581 3239 2228 
Q 2838 1875 2053 1875 
L 1259 1875 
L 1259 0 
L 628 0 
L 628 4666 
z
" transform="scale(0.015625)"/>
     </defs>
     <use xlink:href="#DejaVuSans-47"/>
     <use xlink:href="#DejaVuSans-46" x="77.490234"/>
     <use xlink:href="#DejaVuSans-50" x="135.009766"/>
    </g>
   </g>
   <g id="text_14">
    <g id="patch_20">
     <path d="M 664.99033 124.485369 
L 715.842986 124.485369 
Q 719.142986 124.485369 719.142986 121.185369 
L 719.142986 110.539431 
Q 719.142986 107.239431 715.842986 107.239431 
L 664.99033 107.239431 
Q 661.69033 107.239431 661.69033 110.539431 
L 661.69033 121.185369 
Q 661.69033 124.485369 664.99033 124.485369 
z
" style="fill: #ffffff"/>
    </g>
    <!-- piggyBac -->
    <g transform="translate(664.99033 118.897712) scale(0.11 -0.11)">
     <use xlink:href="#DejaVuSans-70"/>
     <use xlink:href="#DejaVuSans-69" x="63.476562"/>
     <use xlink:href="#DejaVuSans-67" x="91.259766"/>
     <use xlink:href="#DejaVuSans-67" x="154.736328"/>
     <use xlink:href="#DejaVuSans-79" x="218.212891"/>
     <use xlink:href="#DejaVuSans-42" x="277.392578"/>
     <use xlink:href="#DejaVuSans-61" x="345.996094"/>
     <use xlink:href="#DejaVuSans-63" x="407.275391"/>
    </g>
   </g>
   <g id="text_15">
    <g id="patch_21">
     <path d="M 241.466524 124.485369 
L 276.566836 124.485369 
Q 279.866836 124.485369 279.866836 121.185369 
L 279.866836 110.539431 
Q 279.866836 107.239431 276.566836 107.239431 
L 241.466524 107.239431 
Q 238.166524 107.239431 238.166524 110.539431 
L 238.166524 121.185369 
Q 238.166524 124.485369 241.466524 124.485369 
z
" style="fill: #ffffff"/>
    </g>
    <!-- DsRed -->
    <g transform="translate(241.466524 118.897712) scale(0.11 -0.11)">
     <defs>
      <path id="DejaVuSans-44" d="M 1259 4147 
L 1259 519 
L 2022 519 
Q 2988 519 3436 956 
Q 3884 1394 3884 2338 
Q 3884 3275 3436 3711 
Q 2988 4147 2022 4147 
L 1259 4147 
z
M 628 4666 
L 1925 4666 
Q 3281 4666 3915 4102 
Q 4550 3538 4550 2338 
Q 4550 1131 3912 565 
Q 3275 0 1925 0 
L 628 0 
L 628 4666 
z
" transform="scale(0.015625)"/>
      <path id="DejaVuSans-52" d="M 2841 2188 
Q 3044 2119 3236 1894 
Q 3428 1669 3622 1275 
L 4263 0 
L 3584 0 
L 2988 1197 
Q 2756 1666 2539 1819 
Q 2322 1972 1947 1972 
L 1259 1972 
L 1259 0 
L 628 0 
L 628 4666 
L 2053 4666 
Q 2853 4666 3247 4331 
Q 3641 3997 3641 3322 
Q 3641 2881 3436 2590 
Q 3231 2300 2841 2188 
z
M 1259 4147 
L 1259 2491 
L 2053 2491 
Q 2509 2491 2742 2702 
Q 2975 2913 2975 3322 
Q 2975 3731 2742 3939 
Q 2509 4147 2053 4147 
L 1259 4147 
z
" transform="scale(0.015625)"/>
     </defs>
     <use xlink:href="#DejaVuSans-44"/>
     <use xlink:href="#DejaVuSans-73" x="77.001953"/>
     <use xlink:href="#DejaVuSans-52" x="129.101562"/>
     <use xlink:href="#DejaVuSans-65" x="194.083984"/>
     <use xlink:href="#DejaVuSans-64" x="255.607422"/>
    </g>
   </g>
   <g id="text_16">
    <g id="patch_22">
     <path d="M 7.2 93.438969 
L 114.111406 93.438969 
Q 117.411406 93.438969 117.411406 90.138969 
L 117.411406 79.493031 
Q 117.411406 76.193031 114.111406 76.193031 
L 7.2 76.193031 
Q 3.9 76.193031 3.9 79.493031 
L 3.9 90.138969 
Q 3.9 93.438969 7.2 93.438969 
z
" style="fill: #ffffff"/>
    </g>
    <!-- origin of replication -->
    <g transform="translate(7.2 87.851312) scale(0.11 -0.11)">
     <defs>
      <path id="DejaVuSans-66" d="M 2375 4863 
L 2375 4384 
L 1825 4384 
Q 1516 4384 1395 4259 
Q 1275 4134 1275 3809 
L 1275 3500 
L 2222 3500 
L 2222 3053 
L 1275 3053 
L 1275 0 
L 697 0 
L 697 3053 
L 147 3053 
L 147 3500 
L 697 3500 
L 697 3744 
Q 697 4328 969 4595 
Q 1241 4863 1831 4863 
L 2375 4863 
z
" transform="scale(0.015625)"/>
      <path id="DejaVuSans-74" d="M 1172 4494 
L 1172 3500 
L 2356 3500 
L 2356 3053 
L 1172 3053 
L 1172 1153 
Q 1172 725 1289 603 
Q 1406 481 1766 481 
L 2356 481 
L 2356 0 
L 1766 0 
Q 1100 0 847 248 
Q 594 497 594 1153 
L 594 3053 
L 172 3053 
L 172 3500 
L 594 3500 
L 594 4494 
L 1172 4494 
z
" transform="scale(0.015625)"/>
     </defs>
     <use xlink:href="#DejaVuSans-6f"/>
     <use xlink:href="#DejaVuSans-72" x="61.181641"/>
     <use xlink:href="#DejaVuSans-69" x="102.294922"/>
     <use xlink:href="#DejaVuSans-67" x="130.078125"/>
     <use xlink:href="#DejaVuSans-69" x="193.554688"/>
     <use xlink:href="#DejaVuSans-6e" x="221.337891"/>
     <use xlink:href="#DejaVuSans-20" x="284.716797"/>
     <use xlink:href="#DejaVuSans-6f" x="316.503906"/>
     <use xlink:href="#DejaVuSans-66" x="377.685547"/>
     <use xlink:href="#DejaVuSans-20" x="412.890625"/>
     <use xlink:href="#DejaVuSans-72" x="444.677734"/>
     <use xlink:href="#DejaVuSans-65" x="483.541016"/>
     <use xlink:href="#DejaVuSans-70" x="545.064453"/>
     <use xlink:href="#DejaVuSans-6c" x="608.541016"/>
     <use xlink:href="#DejaVuSans-69" x="636.324219"/>
     <use xlink:href="#DejaVuSans-63" x="664.107422"/>
     <use xlink:href="#DejaVuSans-61" x="719.087891"/>
     <use xlink:href="#DejaVuSans-74" x="780.367188"/>
     <use xlink:href="#DejaVuSans-69" x="819.576172"/>
     <use xlink:href="#DejaVuSans-6f" x="847.359375"/>
     <use xlink:href="#DejaVuSans-6e" x="908.541016"/>
    </g>
   </g>
   <g id="text_17">
    <g id="patch_23">
     <path d="M 62.201078 53.028166 
L 161.336859 53.028166 
Q 164.636859 53.028166 164.636859 49.728166 
L 164.636859 26.764634 
Q 164.636859 23.464634 161.336859 23.464634 
L 62.201078 23.464634 
Q 58.901078 23.464634 58.901078 26.764634 
L 58.901078 49.728166 
Q 58.901078 53.028166 62.201078 53.028166 
z
" style="fill: #ffffff"/>
    </g>
    <!-- chloramphenicol -->
    <g transform="translate(66.084594 35.122916) scale(0.11 -0.11)">
     <use xlink:href="#DejaVuSans-63"/>
     <use xlink:href="#DejaVuSans-68" x="54.980469"/>
     <use xlink:href="#DejaVuSans-6c" x="118.359375"/>
     <use xlink:href="#DejaVuSans-6f" x="146.142578"/>
     <use xlink:href="#DejaVuSans-72" x="207.324219"/>
     <use xlink:href="#DejaVuSans-61" x="248.4375"/>
     <use xlink:href="#DejaVuSans-6d" x="309.716797"/>
     <use xlink:href="#DejaVuSans-70" x="407.128906"/>
     <use xlink:href="#DejaVuSans-68" x="470.605469"/>
     <use xlink:href="#DejaVuSans-65" x="533.984375"/>
     <use xlink:href="#DejaVuSans-6e" x="595.507812"/>
     <use xlink:href="#DejaVuSans-69" x="658.886719"/>
     <use xlink:href="#DejaVuSans-63" x="686.669922"/>
     <use xlink:href="#DejaVuSans-6f" x="741.650391"/>
     <use xlink:href="#DejaVuSans-6c" x="802.832031"/>
    </g>
    <!-- resistance marker -->
    <g transform="translate(62.201078 47.440509) scale(0.11 -0.11)">
     <use xlink:href="#DejaVuSans-72"/>
     <use xlink:href="#DejaVuSans-65" x="38.863281"/>
     <use xlink:href="#DejaVuSans-73" x="100.386719"/>
     <use xlink:href="#DejaVuSans-69" x="152.486328"/>
     <use xlink:href="#DejaVuSans-73" x="180.269531"/>
     <use xlink:href="#DejaVuSans-74" x="232.369141"/>
     <use xlink:href="#DejaVuSans-61" x="271.578125"/>
     <use xlink:href="#DejaVuSans-6e" x="332.857422"/>
     <use xlink:href="#DejaVuSans-63" x="396.236328"/>
     <use xlink:href="#DejaVuSans-65" x="451.216797"/>
     <use xlink:href="#DejaVuSans-20" x="512.740234"/>
     <use xlink:href="#DejaVuSans-6d" x="544.527344"/>
     <use xlink:href="#DejaVuSans-61" x="641.939453"/>
     <use xlink:href="#DejaVuSans-72" x="703.21875"/>
     <use xlink:href="#DejaVuSans-6b" x="744.332031"/>
     <use xlink:href="#DejaVuSans-65" x="798.617188"/>
     <use xlink:href="#DejaVuSans-72" x="860.140625"/>
    </g>
   </g>
   <g id="text_18">
    <g id="patch_24">
     <path d="M 279.320962 93.438969 
L 306.461743 93.438969 
Q 309.761743 93.438969 309.761743 90.138969 
L 309.761743 79.493031 
Q 309.761743 76.193031 306.461743 76.193031 
L 279.320962 76.193031 
Q 276.020962 76.193031 276.020962 79.493031 
L 276.020962 90.138969 
Q 276.020962 93.438969 279.320962 93.438969 
z
" style="fill: #ffffff"/>
    </g>
    <!-- 3xP3 -->
    <g transform="translate(279.320962 87.851312) scale(0.11 -0.11)">
     <use xlink:href="#DejaVuSans-33"/>
     <use xlink:href="#DejaVuSans-78" x="63.623047"/>
     <use xlink:href="#DejaVuSans-50" x="122.802734"/>
     <use xlink:href="#DejaVuSans-33" x="183.105469"/>
    </g>
   </g>
   <g id="text_19">
    <g id="patch_25">
     <path d="M 501.113036 93.438969 
L 528.253817 93.438969 
Q 531.553817 93.438969 531.553817 90.138969 
L 531.553817 79.493031 
Q 531.553817 76.193031 528.253817 76.193031 
L 501.113036 76.193031 
Q 497.813036 76.193031 497.813036 79.493031 
L 497.813036 90.138969 
Q 497.813036 93.438969 501.113036 93.438969 
z
" style="fill: #ffffff"/>
    </g>
    <!-- 3xP3 -->
    <g transform="translate(501.113036 87.851312) scale(0.11 -0.11)">
     <use xlink:href="#DejaVuSans-33"/>
     <use xlink:href="#DejaVuSans-78" x="63.623047"/>
     <use xlink:href="#DejaVuSans-50" x="122.802734"/>
     <use xlink:href="#DejaVuSans-33" x="183.105469"/>
    </g>
   </g>
   <g id="text_20">
    <g id="patch_26">
     <path d="M 213.53364 62.392569 
L 242.039109 62.392569 
Q 245.339109 62.392569 245.339109 59.092569 
L 245.339109 48.446631 
Q 245.339109 45.146631 242.039109 45.146631 
L 213.53364 45.146631 
Q 210.23364 45.146631 210.23364 48.446631 
L 210.23364 59.092569 
Q 210.23364 62.392569 213.53364 62.392569 
z
" style="fill: #ffffff"/>
    </g>
    <!-- SV40 -->
    <g transform="translate(213.53364 56.804912) scale(0.11 -0.11)">
     <defs>
      <path id="DejaVuSans-53" d="M 3425 4513 
L 3425 3897 
Q 3066 4069 2747 4153 
Q 2428 4238 2131 4238 
Q 1616 4238 1336 4038 
Q 1056 3838 1056 3469 
Q 1056 3159 1242 3001 
Q 1428 2844 1947 2747 
L 2328 2669 
Q 3034 2534 3370 2195 
Q 3706 1856 3706 1288 
Q 3706 609 3251 259 
Q 2797 -91 1919 -91 
Q 1588 -91 1214 -16 
Q 841 59 441 206 
L 441 856 
Q 825 641 1194 531 
Q 1563 422 1919 422 
Q 2459 422 2753 634 
Q 3047 847 3047 1241 
Q 3047 1584 2836 1778 
Q 2625 1972 2144 2069 
L 1759 2144 
Q 1053 2284 737 2584 
Q 422 2884 422 3419 
Q 422 4038 858 4394 
Q 1294 4750 2059 4750 
Q 2388 4750 2728 4690 
Q 3069 4631 3425 4513 
z
" transform="scale(0.015625)"/>
      <path id="DejaVuSans-56" d="M 1831 0 
L 50 4666 
L 709 4666 
L 2188 738 
L 3669 4666 
L 4325 4666 
L 2547 0 
L 1831 0 
z
" transform="scale(0.015625)"/>
     </defs>
     <use xlink:href="#DejaVuSans-53"/>
     <use xlink:href="#DejaVuSans-56" x="63.476562"/>
     <use xlink:href="#DejaVuSans-34" x="131.884766"/>
     <use xlink:href="#DejaVuSans-30" x="195.507812"/>
    </g>
   </g>
   <g id="text_21">
    <g id="patch_27">
     <path d="M 432.915658 93.438969 
L 461.421127 93.438969 
Q 464.721127 93.438969 464.721127 90.138969 
L 464.721127 79.493031 
Q 464.721127 76.193031 461.421127 76.193031 
L 432.915658 76.193031 
Q 429.615658 76.193031 429.615658 79.493031 
L 429.615658 90.138969 
Q 429.615658 93.438969 432.915658 93.438969 
z
" style="fill: #ffffff"/>
    </g>
    <!-- SV40 -->
    <g transform="translate(432.915658 87.851312) scale(0.11 -0.11)">
     <use xlink:href="#DejaVuSans-53"/>
     <use xlink:href="#DejaVuSans-56" x="63.476562"/>
     <use xlink:href="#DejaVuSans-34" x="131.884766"/>
     <use xlink:href="#DejaVuSans-30" x="195.507812"/>
    </g>
   </g>
   <g id="text_22">
    <g id="patch_28">
     <path d="M 200.915072 93.438969 
L 233.636635 93.438969 
Q 236.936635 93.438969 236.936635 90.138969 
L 236.936635 79.493031 
Q 236.936635 76.193031 233.636635 76.193031 
L 200.915072 76.193031 
Q 197.615072 76.193031 197.615072 79.493031 
L 197.615072 90.138969 
Q 197.615072 93.438969 200.915072 93.438969 
z
" style="fill: #ffffff"/>
    </g>
    <!-- AttB⇨ -->
    <g transform="translate(200.915072 87.851312) scale(0.11 -0.11)">
     <defs>
      <path id="DejaVuSans-41" d="M 2188 4044 
L 1331 1722 
L 3047 1722 
L 2188 4044 
z
M 1831 4666 
L 2547 4666 
L 4325 0 
L 3669 0 
L 3244 1197 
L 1141 1197 
L 716 0 
L 50 0 
L 1831 4666 
z
" transform="scale(0.015625)"/>
      <path id="DejaVuSans-21e8" d="M 3775 2838 
L 3775 2428 
L 538 2428 
L 538 1584 
L 3775 1584 
L 3775 1175 
L 4606 2006 
L 3775 2838 
z
M 3463 419 
L 3463 1272 
L 225 1272 
L 225 2741 
L 3463 2741 
L 3463 3594 
L 5050 2006 
L 3463 419 
z
" transform="scale(0.015625)"/>
     </defs>
     <use xlink:href="#DejaVuSans-41"/>
     <use xlink:href="#DejaVuSans-74" x="66.658203"/>
     <use xlink:href="#DejaVuSans-74" x="105.867188"/>
     <use xlink:href="#DejaVuSans-42" x="145.076172"/>
     <use xlink:href="#DejaVuSans-21e8" x="213.679688"/>
    </g>
   </g>
   <g id="text_23">
    <g id="patch_29">
     <path d="M 648.716818 93.438969 
L 681.438381 93.438969 
Q 684.738381 93.438969 684.738381 90.138969 
L 684.738381 79.493031 
Q 684.738381 76.193031 681.438381 76.193031 
L 648.716818 76.193031 
Q 645.416818 76.193031 645.416818 79.493031 
L 645.416818 90.138969 
Q 645.416818 93.438969 648.716818 93.438969 
z
" style="fill: #ffffff"/>
    </g>
    <!-- ⇦AttB -->
    <g transform="translate(648.716818 87.851312) scale(0.11 -0.11)">
     <defs>
      <path id="DejaVuSans-21e6" d="M 1447 2838 
L 616 2006 
L 1447 1175 
L 1447 1584 
L 4684 1584 
L 4684 2428 
L 1447 2428 
L 1447 2838 
z
M 1759 419 
L 172 2006 
L 1759 3594 
L 1759 2741 
L 4997 2741 
L 4997 1272 
L 1759 1272 
L 1759 419 
z
" transform="scale(0.015625)"/>
     </defs>
     <use xlink:href="#DejaVuSans-21e6"/>
     <use xlink:href="#DejaVuSans-41" x="83.789062"/>
     <use xlink:href="#DejaVuSans-74" x="150.447266"/>
     <use xlink:href="#DejaVuSans-74" x="189.65625"/>
     <use xlink:href="#DejaVuSans-42" x="228.865234"/>
    </g>
   </g>
   <g id="text_24">
    <g id="patch_30">
     <path d="M 421.724995 124.485369 
L 453.532183 124.485369 
Q 456.832183 124.485369 456.832183 121.185369 
L 456.832183 110.539431 
Q 456.832183 107.239431 453.532183 107.239431 
L 421.724995 107.239431 
Q 418.424995 107.239431 418.424995 110.539431 
L 418.424995 121.185369 
Q 418.424995 124.485369 421.724995 124.485369 
z
" style="fill: #ffffff"/>
    </g>
    <!-- AttP⇨ -->
    <g transform="translate(421.724995 118.897712) scale(0.11 -0.11)">
     <use xlink:href="#DejaVuSans-41"/>
     <use xlink:href="#DejaVuSans-74" x="66.658203"/>
     <use xlink:href="#DejaVuSans-74" x="105.867188"/>
     <use xlink:href="#DejaVuSans-50" x="145.076172"/>
     <use xlink:href="#DejaVuSans-21e8" x="205.378906"/>
    </g>
   </g>
   <g id="text_25">
    <g id="patch_31">
     <path d="M 509.02257 124.485369 
L 540.829757 124.485369 
Q 544.129757 124.485369 544.129757 121.185369 
L 544.129757 110.539431 
Q 544.129757 107.239431 540.829757 107.239431 
L 509.02257 107.239431 
Q 505.72257 107.239431 505.72257 110.539431 
L 505.72257 121.185369 
Q 505.72257 124.485369 509.02257 124.485369 
z
" style="fill: #ffffff"/>
    </g>
    <!-- ⇦AttP -->
    <g transform="translate(509.02257 118.897712) scale(0.11 -0.11)">
     <use xlink:href="#DejaVuSans-21e6"/>
     <use xlink:href="#DejaVuSans-41" x="83.789062"/>
     <use xlink:href="#DejaVuSans-74" x="150.447266"/>
     <use xlink:href="#DejaVuSans-74" x="189.65625"/>
     <use xlink:href="#DejaVuSans-50" x="228.865234"/>
    </g>
   </g>
   <g id="legend_1">
    <g id="patch_32">
     <path d="M 456.483281 23.798437 
L 476.483281 23.798437 
L 476.483281 16.798437 
L 456.483281 16.798437 
z
" style="fill: #ffff00; stroke: #000000; stroke-linejoin: miter"/>
    </g>
    <g id="text_26">
     <!-- rep_origin -->
     <g transform="translate(484.483281 23.798437) scale(0.1 -0.1)">
      <defs>
       <path id="DejaVuSans-5f" d="M 3263 -1063 
L 3263 -1509 
L -63 -1509 
L -63 -1063 
L 3263 -1063 
z
" transform="scale(0.015625)"/>
      </defs>
      <use xlink:href="#DejaVuSans-72"/>
      <use xlink:href="#DejaVuSans-65" x="38.863281"/>
      <use xlink:href="#DejaVuSans-70" x="100.386719"/>
      <use xlink:href="#DejaVuSans-5f" x="163.863281"/>
      <use xlink:href="#DejaVuSans-6f" x="213.863281"/>
      <use xlink:href="#DejaVuSans-72" x="275.044922"/>
      <use xlink:href="#DejaVuSans-69" x="316.158203"/>
      <use xlink:href="#DejaVuSans-67" x="343.941406"/>
      <use xlink:href="#DejaVuSans-69" x="407.417969"/>
      <use xlink:href="#DejaVuSans-6e" x="435.201172"/>
     </g>
    </g>
    <g id="patch_33">
     <path d="M 456.483281 38.754687 
L 476.483281 38.754687 
L 476.483281 31.754687 
L 456.483281 31.754687 
z
" style="fill: #ffd383; stroke: #000000; stroke-linejoin: miter"/>
    </g>
    <g id="text_27">
     <!-- CDS -->
     <g transform="translate(484.483281 38.754687) scale(0.1 -0.1)">
      <defs>
       <path id="DejaVuSans-43" d="M 4122 4306 
L 4122 3641 
Q 3803 3938 3442 4084 
Q 3081 4231 2675 4231 
Q 1875 4231 1450 3742 
Q 1025 3253 1025 2328 
Q 1025 1406 1450 917 
Q 1875 428 2675 428 
Q 3081 428 3442 575 
Q 3803 722 4122 1019 
L 4122 359 
Q 3791 134 3420 21 
Q 3050 -91 2638 -91 
Q 1578 -91 968 557 
Q 359 1206 359 2328 
Q 359 3453 968 4101 
Q 1578 4750 2638 4750 
Q 3056 4750 3426 4639 
Q 3797 4528 4122 4306 
z
" transform="scale(0.015625)"/>
      </defs>
      <use xlink:href="#DejaVuSans-43"/>
      <use xlink:href="#DejaVuSans-44" x="69.824219"/>
      <use xlink:href="#DejaVuSans-53" x="146.826172"/>
     </g>
    </g>
    <g id="patch_34">
     <path d="M 554.342656 23.798437 
L 574.342656 23.798437 
L 574.342656 16.798437 
L 554.342656 16.798437 
z
" style="fill: #d1e9f1; stroke: #000000; stroke-linejoin: miter"/>
    </g>
    <g id="text_28">
     <!-- misc_feature -->
     <g transform="translate(582.342656 23.798437) scale(0.1 -0.1)">
      <defs>
       <path id="DejaVuSans-75" d="M 544 1381 
L 544 3500 
L 1119 3500 
L 1119 1403 
Q 1119 906 1312 657 
Q 1506 409 1894 409 
Q 2359 409 2629 706 
Q 2900 1003 2900 1516 
L 2900 3500 
L 3475 3500 
L 3475 0 
L 2900 0 
L 2900 538 
Q 2691 219 2414 64 
Q 2138 -91 1772 -91 
Q 1169 -91 856 284 
Q 544 659 544 1381 
z
M 1991 3584 
L 1991 3584 
z
" transform="scale(0.015625)"/>
      </defs>
      <use xlink:href="#DejaVuSans-6d"/>
      <use xlink:href="#DejaVuSans-69" x="97.412109"/>
      <use xlink:href="#DejaVuSans-73" x="125.195312"/>
      <use xlink:href="#DejaVuSans-63" x="177.294922"/>
      <use xlink:href="#DejaVuSans-5f" x="232.275391"/>
      <use xlink:href="#DejaVuSans-66" x="282.275391"/>
      <use xlink:href="#DejaVuSans-65" x="317.480469"/>
      <use xlink:href="#DejaVuSans-61" x="379.003906"/>
      <use xlink:href="#DejaVuSans-74" x="440.283203"/>
      <use xlink:href="#DejaVuSans-75" x="479.492188"/>
      <use xlink:href="#DejaVuSans-72" x="542.871094"/>
      <use xlink:href="#DejaVuSans-65" x="581.734375"/>
     </g>
    </g>
    <g id="patch_35">
     <path d="M 554.342656 38.754687 
L 574.342656 38.754687 
L 574.342656 31.754687 
L 554.342656 31.754687 
z
" style="fill: #fbf3f6; stroke: #000000; stroke-linejoin: miter"/>
    </g>
    <g id="text_29">
     <!-- misc_recomb -->
     <g transform="translate(582.342656 38.754687) scale(0.1 -0.1)">
      <use xlink:href="#DejaVuSans-6d"/>
      <use xlink:href="#DejaVuSans-69" x="97.412109"/>
      <use xlink:href="#DejaVuSans-73" x="125.195312"/>
      <use xlink:href="#DejaVuSans-63" x="177.294922"/>
      <use xlink:href="#DejaVuSans-5f" x="232.275391"/>
      <use xlink:href="#DejaVuSans-72" x="282.275391"/>
      <use xlink:href="#DejaVuSans-65" x="321.138672"/>
      <use xlink:href="#DejaVuSans-63" x="382.662109"/>
      <use xlink:href="#DejaVuSans-6f" x="437.642578"/>
      <use xlink:href="#DejaVuSans-6d" x="498.824219"/>
      <use xlink:href="#DejaVuSans-62" x="596.236328"/>
     </g>
    </g>
    <g id="patch_36">
     <path d="M 668.314531 23.798437 
L 688.314531 23.798437 
L 688.314531 16.798437 
L 668.314531 16.798437 
z
" style="fill: #ff0000; stroke: #000000; stroke-linejoin: miter"/>
    </g>
    <g id="text_30">
     <!-- regulatory -->
     <g transform="translate(696.314531 23.798437) scale(0.1 -0.1)">
      <use xlink:href="#DejaVuSans-72"/>
      <use xlink:href="#DejaVuSans-65" x="38.863281"/>
      <use xlink:href="#DejaVuSans-67" x="100.386719"/>
      <use xlink:href="#DejaVuSans-75" x="163.863281"/>
      <use xlink:href="#DejaVuSans-6c" x="227.242188"/>
      <use xlink:href="#DejaVuSans-61" x="255.025391"/>
      <use xlink:href="#DejaVuSans-74" x="316.304688"/>
      <use xlink:href="#DejaVuSans-6f" x="355.513672"/>
      <use xlink:href="#DejaVuSans-72" x="416.695312"/>
      <use xlink:href="#DejaVuSans-79" x="457.808594"/>
     </g>
    </g>
    <g id="patch_37">
     <path d="M 668.314531 38.476562 
L 688.314531 38.476562 
L 688.314531 31.476562 
L 668.314531 31.476562 
z
" style="fill: #00008b; stroke: #000000; stroke-linejoin: miter"/>
    </g>
    <g id="text_31">
     <!-- backbone -->
     <g transform="translate(696.314531 38.476562) scale(0.1 -0.1)">
      <use xlink:href="#DejaVuSans-62"/>
      <use xlink:href="#DejaVuSans-61" x="63.476562"/>
      <use xlink:href="#DejaVuSans-63" x="124.755859"/>
      <use xlink:href="#DejaVuSans-6b" x="179.736328"/>
      <use xlink:href="#DejaVuSans-62" x="237.646484"/>
      <use xlink:href="#DejaVuSans-6f" x="301.123047"/>
      <use xlink:href="#DejaVuSans-6e" x="362.304688"/>
      <use xlink:href="#DejaVuSans-65" x="425.683594"/>
     </g>
    </g>
   </g>
  </g>
 </g>
 <defs>
  <clipPath id="pce3c6b9f56">
   <rect x="31.614531" y="7.2" width="725.4" height="155.232"/>
  </clipPath>
 </defs>
</svg>
