<?xml version="1.0" encoding="utf-8" standalone="no"?>
<!DOCTYPE svg PUBLIC "-//W3C//DTD SVG 1.1//EN"
  "http://www.w3.org/Graphics/SVG/1.1/DTD/svg11.dtd">
<svg xmlns:xlink="http://www.w3.org/1999/xlink" width="369.132021pt" height="153.046125pt" viewBox="0 0 369.132021 153.046125" xmlns="http://www.w3.org/2000/svg" version="1.1">
 <metadata>
  <rdf:RDF xmlns:dc="http://purl.org/dc/elements/1.1/" xmlns:cc="http://creativecommons.org/ns#" xmlns:rdf="http://www.w3.org/1999/02/22-rdf-syntax-ns#">
   <cc:Work>
    <dc:type rdf:resource="http://purl.org/dc/dcmitype/StillImage"/>
    <dc:date>2024-06-25T16:48:28.938565</dc:date>
    <dc:format>image/svg+xml</dc:format>
    <dc:creator>
     <cc:Agent>
      <dc:title>Matplotlib v3.7.2, https://matplotlib.org/</dc:title>
     </cc:Agent>
    </dc:creator>
   </cc:Work>
  </rdf:RDF>
 </metadata>
 <defs>
  <style type="text/css">*{stroke-linejoin: round; stroke-linecap: butt}</style>
 </defs>
 <g id="figure_1">
  <g id="patch_1">
   <path d="M 0 153.046125 
L 369.132021 153.046125 
L 369.132021 0 
L 0 0 
z
" style="fill: #ffffff"/>
  </g>
  <g id="axes_1">
   <g id="line2d_1">
    <path d="M 16.078998 129.168 
L 16.078998 7.2 
" clip-path="url(#p737f45f55f)" style="fill: none; stroke: #000000; stroke-opacity: 0.2; stroke-width: 0.1; stroke-linecap: square"/>
   </g>
   <g id="line2d_2">
    <path d="M 26.949127 129.168 
L 26.949127 7.2 
" clip-path="url(#p737f45f55f)" style="fill: none; stroke: #000000; stroke-opacity: 0.2; stroke-width: 0.1; stroke-linecap: square"/>
   </g>
   <g id="line2d_3">
    <path d="M 37.819257 129.168 
L 37.819257 7.2 
" clip-path="url(#p737f45f55f)" style="fill: none; stroke: #000000; stroke-opacity: 0.2; stroke-width: 0.1; stroke-linecap: square"/>
   </g>
   <g id="line2d_4">
    <path d="M 48.689387 129.168 
L 48.689387 7.2 
" clip-path="url(#p737f45f55f)" style="fill: none; stroke: #000000; stroke-opacity: 0.2; stroke-width: 0.1; stroke-linecap: square"/>
   </g>
   <g id="line2d_5">
    <path d="M 59.559517 129.168 
L 59.559517 7.2 
" clip-path="url(#p737f45f55f)" style="fill: none; stroke: #000000; stroke-opacity: 0.2; stroke-width: 0.1; stroke-linecap: square"/>
   </g>
   <g id="line2d_6">
    <path d="M 70.429647 129.168 
L 70.429647 7.2 
" clip-path="url(#p737f45f55f)" style="fill: none; stroke: #000000; stroke-opacity: 0.2; stroke-width: 0.1; stroke-linecap: square"/>
   </g>
   <g id="line2d_7">
    <path d="M 81.299777 129.168 
L 81.299777 7.2 
" clip-path="url(#p737f45f55f)" style="fill: none; stroke: #000000; stroke-opacity: 0.2; stroke-width: 0.1; stroke-linecap: square"/>
   </g>
   <g id="line2d_8">
    <path d="M 92.169907 129.168 
L 92.169907 7.2 
" clip-path="url(#p737f45f55f)" style="fill: none; stroke: #000000; stroke-opacity: 0.2; stroke-width: 0.1; stroke-linecap: square"/>
   </g>
   <g id="line2d_9">
    <path d="M 103.040037 129.168 
L 103.040037 7.2 
" clip-path="url(#p737f45f55f)" style="fill: none; stroke: #000000; stroke-opacity: 0.2; stroke-width: 0.1; stroke-linecap: square"/>
   </g>
   <g id="line2d_10">
    <path d="M 113.910166 129.168 
L 113.910166 7.2 
" clip-path="url(#p737f45f55f)" style="fill: none; stroke: #000000; stroke-opacity: 0.2; stroke-width: 0.1; stroke-linecap: square"/>
   </g>
   <g id="line2d_11">
    <path d="M 124.780296 129.168 
L 124.780296 7.2 
" clip-path="url(#p737f45f55f)" style="fill: none; stroke: #000000; stroke-opacity: 0.2; stroke-width: 0.1; stroke-linecap: square"/>
   </g>
   <g id="line2d_12">
    <path d="M 135.650426 129.168 
L 135.650426 7.2 
" clip-path="url(#p737f45f55f)" style="fill: none; stroke: #000000; stroke-opacity: 0.2; stroke-width: 0.1; stroke-linecap: square"/>
   </g>
   <g id="line2d_13">
    <path d="M 146.520556 129.168 
L 146.520556 7.2 
" clip-path="url(#p737f45f55f)" style="fill: none; stroke: #000000; stroke-opacity: 0.2; stroke-width: 0.1; stroke-linecap: square"/>
   </g>
   <g id="line2d_14">
    <path d="M 157.390686 129.168 
L 157.390686 7.2 
" clip-path="url(#p737f45f55f)" style="fill: none; stroke: #000000; stroke-opacity: 0.2; stroke-width: 0.1; stroke-linecap: square"/>
   </g>
   <g id="line2d_15">
    <path d="M 168.260816 129.168 
L 168.260816 7.2 
" clip-path="url(#p737f45f55f)" style="fill: none; stroke: #000000; stroke-opacity: 0.2; stroke-width: 0.1; stroke-linecap: square"/>
   </g>
   <g id="line2d_16">
    <path d="M 179.130946 129.168 
L 179.130946 7.2 
" clip-path="url(#p737f45f55f)" style="fill: none; stroke: #000000; stroke-opacity: 0.2; stroke-width: 0.1; stroke-linecap: square"/>
   </g>
   <g id="line2d_17">
    <path d="M 190.001075 129.168 
L 190.001075 7.2 
" clip-path="url(#p737f45f55f)" style="fill: none; stroke: #000000; stroke-opacity: 0.2; stroke-width: 0.1; stroke-linecap: square"/>
   </g>
   <g id="line2d_18">
    <path d="M 200.871205 129.168 
L 200.871205 7.2 
" clip-path="url(#p737f45f55f)" style="fill: none; stroke: #000000; stroke-opacity: 0.2; stroke-width: 0.1; stroke-linecap: square"/>
   </g>
   <g id="line2d_19">
    <path d="M 211.741335 129.168 
L 211.741335 7.2 
" clip-path="url(#p737f45f55f)" style="fill: none; stroke: #000000; stroke-opacity: 0.2; stroke-width: 0.1; stroke-linecap: square"/>
   </g>
   <g id="line2d_20">
    <path d="M 222.611465 129.168 
L 222.611465 7.2 
" clip-path="url(#p737f45f55f)" style="fill: none; stroke: #000000; stroke-opacity: 0.2; stroke-width: 0.1; stroke-linecap: square"/>
   </g>
   <g id="line2d_21">
    <path d="M 233.481595 129.168 
L 233.481595 7.2 
" clip-path="url(#p737f45f55f)" style="fill: none; stroke: #000000; stroke-opacity: 0.2; stroke-width: 0.1; stroke-linecap: square"/>
   </g>
   <g id="line2d_22">
    <path d="M 244.351725 129.168 
L 244.351725 7.2 
" clip-path="url(#p737f45f55f)" style="fill: none; stroke: #000000; stroke-opacity: 0.2; stroke-width: 0.1; stroke-linecap: square"/>
   </g>
   <g id="line2d_23">
    <path d="M 255.221855 129.168 
L 255.221855 7.2 
" clip-path="url(#p737f45f55f)" style="fill: none; stroke: #000000; stroke-opacity: 0.2; stroke-width: 0.1; stroke-linecap: square"/>
   </g>
   <g id="line2d_24">
    <path d="M 266.091985 129.168 
L 266.091985 7.2 
" clip-path="url(#p737f45f55f)" style="fill: none; stroke: #000000; stroke-opacity: 0.2; stroke-width: 0.1; stroke-linecap: square"/>
   </g>
   <g id="line2d_25">
    <path d="M 276.962114 129.168 
L 276.962114 7.2 
" clip-path="url(#p737f45f55f)" style="fill: none; stroke: #000000; stroke-opacity: 0.2; stroke-width: 0.1; stroke-linecap: square"/>
   </g>
   <g id="line2d_26">
    <path d="M 287.832244 129.168 
L 287.832244 7.2 
" clip-path="url(#p737f45f55f)" style="fill: none; stroke: #000000; stroke-opacity: 0.2; stroke-width: 0.1; stroke-linecap: square"/>
   </g>
   <g id="line2d_27">
    <path d="M 298.702374 129.168 
L 298.702374 7.2 
" clip-path="url(#p737f45f55f)" style="fill: none; stroke: #000000; stroke-opacity: 0.2; stroke-width: 0.1; stroke-linecap: square"/>
   </g>
   <g id="line2d_28">
    <path d="M 309.572504 129.168 
L 309.572504 7.2 
" clip-path="url(#p737f45f55f)" style="fill: none; stroke: #000000; stroke-opacity: 0.2; stroke-width: 0.1; stroke-linecap: square"/>
   </g>
   <g id="line2d_29">
    <path d="M 320.442634 129.168 
L 320.442634 7.2 
" clip-path="url(#p737f45f55f)" style="fill: none; stroke: #000000; stroke-opacity: 0.2; stroke-width: 0.1; stroke-linecap: square"/>
   </g>
   <g id="line2d_30">
    <path d="M 331.312764 129.168 
L 331.312764 7.2 
" clip-path="url(#p737f45f55f)" style="fill: none; stroke: #000000; stroke-opacity: 0.2; stroke-width: 0.1; stroke-linecap: square"/>
   </g>
   <g id="line2d_31">
    <path d="M 342.182894 129.168 
L 342.182894 7.2 
" clip-path="url(#p737f45f55f)" style="fill: none; stroke: #000000; stroke-opacity: 0.2; stroke-width: 0.1; stroke-linecap: square"/>
   </g>
   <g id="line2d_32">
    <path d="M 179.130946 129.168 
L 179.130946 7.2 
" clip-path="url(#p737f45f55f)" style="fill: none; stroke: #000000; stroke-opacity: 0.5; stroke-width: 0.1; stroke-linecap: square"/>
   </g>
   <g id="line2d_33">
    <path d="M 211.741335 129.168 
L 211.741335 7.2 
" clip-path="url(#p737f45f55f)" style="fill: none; stroke: #000000; stroke-opacity: 0.5; stroke-width: 0.1; stroke-linecap: square"/>
   </g>
   <g id="line2d_34">
    <path d="M 244.351725 129.168 
L 244.351725 7.2 
" clip-path="url(#p737f45f55f)" style="fill: none; stroke: #000000; stroke-opacity: 0.5; stroke-width: 0.1; stroke-linecap: square"/>
   </g>
   <g id="line2d_35">
    <path d="M 276.962114 129.168 
L 276.962114 7.2 
" clip-path="url(#p737f45f55f)" style="fill: none; stroke: #000000; stroke-opacity: 0.5; stroke-width: 0.1; stroke-linecap: square"/>
   </g>
   <g id="line2d_36">
    <path d="M 309.572504 129.168 
L 309.572504 7.2 
" clip-path="url(#p737f45f55f)" style="fill: none; stroke: #000000; stroke-opacity: 0.5; stroke-width: 0.1; stroke-linecap: square"/>
   </g>
   <g id="line2d_37">
    <path d="M 342.182894 129.168 
L 342.182894 7.2 
" clip-path="url(#p737f45f55f)" style="fill: none; stroke: #000000; stroke-opacity: 0.5; stroke-width: 0.1; stroke-linecap: square"/>
   </g>
   <g id="line2d_38">
    <path d="M 12.817959 80.3808 
L 345.443933 80.3808 
" clip-path="url(#p737f45f55f)" style="fill: none; stroke: #000000; stroke-width: 1.5; stroke-linecap: square"/>
   </g>
   <g id="line2d_39">
    <path d="M 26.949127 55.9872 
L 26.949127 80.3808 
" clip-path="url(#p737f45f55f)" style="fill: none; stroke: #000000; stroke-width: 0.5; stroke-linecap: square"/>
   </g>
   <g id="patch_2">
    <path d="M 353.053024 87.3808 
Q 270.291687 87.3808 187.53035 87.3808 
L 187.53035 87.3808 
Q 183.330648 83.8808 179.130946 80.3808 
Q 183.330648 76.8808 187.53035 73.3808 
L 187.53035 73.3808 
Q 270.291687 73.3808 353.053024 73.3808 
L 353.053024 87.3808 
z
" clip-path="url(#p737f45f55f)" style="fill: #ffd383; stroke: #000000; stroke-linecap: round"/>
   </g>
   <g id="patch_3">
    <path d="M 37.819257 87.3808 
Q 21.516053 87.3808 5.212848 87.3808 
L 5.212848 87.3808 
Q 5.210858 83.8808 5.208868 80.3808 
Q 5.210858 76.8808 5.212848 73.3808 
L 5.212848 73.3808 
Q 21.516053 73.3808 37.819257 73.3808 
L 37.819257 87.3808 
z
" clip-path="url(#p737f45f55f)" style="fill: #ff0000; stroke: #000000; stroke-linecap: round"/>
   </g>
   <g id="matplotlib.axis_1">
    <g id="xtick_1">
     <g id="line2d_40">
      <defs>
       <path id="mbf8884a998" d="M 0 0 
L 0 3.5 
" style="stroke: #808080; stroke-width: 0.8"/>
      </defs>
      <g>
       <use xlink:href="#mbf8884a998" x="21.514063" y="129.168" style="fill: #808080; stroke: #808080; stroke-width: 0.8"/>
      </g>
     </g>
     <g id="text_1">
      <!-- 6,320 -->
      <g style="fill: #808080" transform="translate(7.2 143.766437) scale(0.1 -0.1)">
       <defs>
        <path id="DejaVuSans-36" d="M 2113 2584 
Q 1688 2584 1439 2293 
Q 1191 2003 1191 1497 
Q 1191 994 1439 701 
Q 1688 409 2113 409 
Q 2538 409 2786 701 
Q 3034 994 3034 1497 
Q 3034 2003 2786 2293 
Q 2538 2584 2113 2584 
z
M 3366 4563 
L 3366 3988 
Q 3128 4100 2886 4159 
Q 2644 4219 2406 4219 
Q 1781 4219 1451 3797 
Q 1122 3375 1075 2522 
Q 1259 2794 1537 2939 
Q 1816 3084 2150 3084 
Q 2853 3084 3261 2657 
Q 3669 2231 3669 1497 
Q 3669 778 3244 343 
Q 2819 -91 2113 -91 
Q 1303 -91 875 529 
Q 447 1150 447 2328 
Q 447 3434 972 4092 
Q 1497 4750 2381 4750 
Q 2619 4750 2861 4703 
Q 3103 4656 3366 4563 
z
" transform="scale(0.015625)"/>
        <path id="DejaVuSans-2c" d="M 750 794 
L 1409 794 
L 1409 256 
L 897 -744 
L 494 -744 
L 750 256 
L 750 794 
z
" transform="scale(0.015625)"/>
        <path id="DejaVuSans-33" d="M 2597 2516 
Q 3050 2419 3304 2112 
Q 3559 1806 3559 1356 
Q 3559 666 3084 287 
Q 2609 -91 1734 -91 
Q 1441 -91 1130 -33 
Q 819 25 488 141 
L 488 750 
Q 750 597 1062 519 
Q 1375 441 1716 441 
Q 2309 441 2620 675 
Q 2931 909 2931 1356 
Q 2931 1769 2642 2001 
Q 2353 2234 1838 2234 
L 1294 2234 
L 1294 2753 
L 1863 2753 
Q 2328 2753 2575 2939 
Q 2822 3125 2822 3475 
Q 2822 3834 2567 4026 
Q 2313 4219 1838 4219 
Q 1578 4219 1281 4162 
Q 984 4106 628 3988 
L 628 4550 
Q 988 4650 1302 4700 
Q 1616 4750 1894 4750 
Q 2613 4750 3031 4423 
Q 3450 4097 3450 3541 
Q 3450 3153 3228 2886 
Q 3006 2619 2597 2516 
z
" transform="scale(0.015625)"/>
        <path id="DejaVuSans-32" d="M 1228 531 
L 3431 531 
L 3431 0 
L 469 0 
L 469 531 
Q 828 903 1448 1529 
Q 2069 2156 2228 2338 
Q 2531 2678 2651 2914 
Q 2772 3150 2772 3378 
Q 2772 3750 2511 3984 
Q 2250 4219 1831 4219 
Q 1534 4219 1204 4116 
Q 875 4013 500 3803 
L 500 4441 
Q 881 4594 1212 4672 
Q 1544 4750 1819 4750 
Q 2544 4750 2975 4387 
Q 3406 4025 3406 3419 
Q 3406 3131 3298 2873 
Q 3191 2616 2906 2266 
Q 2828 2175 2409 1742 
Q 1991 1309 1228 531 
z
" transform="scale(0.015625)"/>
        <path id="DejaVuSans-30" d="M 2034 4250 
Q 1547 4250 1301 3770 
Q 1056 3291 1056 2328 
Q 1056 1369 1301 889 
Q 1547 409 2034 409 
Q 2525 409 2770 889 
Q 3016 1369 3016 2328 
Q 3016 3291 2770 3770 
Q 2525 4250 2034 4250 
z
M 2034 4750 
Q 2819 4750 3233 4129 
Q 3647 3509 3647 2328 
Q 3647 1150 3233 529 
Q 2819 -91 2034 -91 
Q 1250 -91 836 529 
Q 422 1150 422 2328 
Q 422 3509 836 4129 
Q 1250 4750 2034 4750 
z
" transform="scale(0.015625)"/>
       </defs>
       <use xlink:href="#DejaVuSans-36"/>
       <use xlink:href="#DejaVuSans-2c" x="63.623047"/>
       <use xlink:href="#DejaVuSans-33" x="95.410156"/>
       <use xlink:href="#DejaVuSans-32" x="159.033203"/>
       <use xlink:href="#DejaVuSans-30" x="222.65625"/>
      </g>
     </g>
    </g>
    <g id="xtick_2">
     <g id="line2d_41">
      <g>
       <use xlink:href="#mbf8884a998" x="75.864712" y="129.168" style="fill: #808080; stroke: #808080; stroke-width: 0.8"/>
      </g>
     </g>
     <g id="text_2">
      <!-- 6,325 -->
      <g style="fill: #808080" transform="translate(61.550649 143.766437) scale(0.1 -0.1)">
       <defs>
        <path id="DejaVuSans-35" d="M 691 4666 
L 3169 4666 
L 3169 4134 
L 1269 4134 
L 1269 2991 
Q 1406 3038 1543 3061 
Q 1681 3084 1819 3084 
Q 2600 3084 3056 2656 
Q 3513 2228 3513 1497 
Q 3513 744 3044 326 
Q 2575 -91 1722 -91 
Q 1428 -91 1123 -41 
Q 819 9 494 109 
L 494 744 
Q 775 591 1075 516 
Q 1375 441 1709 441 
Q 2250 441 2565 725 
Q 2881 1009 2881 1497 
Q 2881 1984 2565 2268 
Q 2250 2553 1709 2553 
Q 1456 2553 1204 2497 
Q 953 2441 691 2322 
L 691 4666 
z
" transform="scale(0.015625)"/>
       </defs>
       <use xlink:href="#DejaVuSans-36"/>
       <use xlink:href="#DejaVuSans-2c" x="63.623047"/>
       <use xlink:href="#DejaVuSans-33" x="95.410156"/>
       <use xlink:href="#DejaVuSans-32" x="159.033203"/>
       <use xlink:href="#DejaVuSans-35" x="222.65625"/>
      </g>
     </g>
    </g>
    <g id="xtick_3">
     <g id="line2d_42">
      <g>
       <use xlink:href="#mbf8884a998" x="130.215361" y="129.168" style="fill: #808080; stroke: #808080; stroke-width: 0.8"/>
      </g>
     </g>
     <g id="text_3">
      <!-- 6,330 -->
      <g style="fill: #808080" transform="translate(115.901299 143.766437) scale(0.1 -0.1)">
       <use xlink:href="#DejaVuSans-36"/>
       <use xlink:href="#DejaVuSans-2c" x="63.623047"/>
       <use xlink:href="#DejaVuSans-33" x="95.410156"/>
       <use xlink:href="#DejaVuSans-33" x="159.033203"/>
       <use xlink:href="#DejaVuSans-30" x="222.65625"/>
      </g>
     </g>
    </g>
    <g id="xtick_4">
     <g id="line2d_43">
      <g>
       <use xlink:href="#mbf8884a998" x="184.566011" y="129.168" style="fill: #808080; stroke: #808080; stroke-width: 0.8"/>
      </g>
     </g>
     <g id="text_4">
      <!-- 6,335 -->
      <g style="fill: #808080" transform="translate(170.251948 143.766437) scale(0.1 -0.1)">
       <use xlink:href="#DejaVuSans-36"/>
       <use xlink:href="#DejaVuSans-2c" x="63.623047"/>
       <use xlink:href="#DejaVuSans-33" x="95.410156"/>
       <use xlink:href="#DejaVuSans-33" x="159.033203"/>
       <use xlink:href="#DejaVuSans-35" x="222.65625"/>
      </g>
     </g>
    </g>
    <g id="xtick_5">
     <g id="line2d_44">
      <g>
       <use xlink:href="#mbf8884a998" x="238.91666" y="129.168" style="fill: #808080; stroke: #808080; stroke-width: 0.8"/>
      </g>
     </g>
     <g id="text_5">
      <!-- 6,340 -->
      <g style="fill: #808080" transform="translate(224.602597 143.766437) scale(0.1 -0.1)">
       <defs>
        <path id="DejaVuSans-34" d="M 2419 4116 
L 825 1625 
L 2419 1625 
L 2419 4116 
z
M 2253 4666 
L 3047 4666 
L 3047 1625 
L 3713 1625 
L 3713 1100 
L 3047 1100 
L 3047 0 
L 2419 0 
L 2419 1100 
L 313 1100 
L 313 1709 
L 2253 4666 
z
" transform="scale(0.015625)"/>
       </defs>
       <use xlink:href="#DejaVuSans-36"/>
       <use xlink:href="#DejaVuSans-2c" x="63.623047"/>
       <use xlink:href="#DejaVuSans-33" x="95.410156"/>
       <use xlink:href="#DejaVuSans-34" x="159.033203"/>
       <use xlink:href="#DejaVuSans-30" x="222.65625"/>
      </g>
     </g>
    </g>
    <g id="xtick_6">
     <g id="line2d_45">
      <g>
       <use xlink:href="#mbf8884a998" x="293.267309" y="129.168" style="fill: #808080; stroke: #808080; stroke-width: 0.8"/>
      </g>
     </g>
     <g id="text_6">
      <!-- 6,345 -->
      <g style="fill: #808080" transform="translate(278.953247 143.766437) scale(0.1 -0.1)">
       <use xlink:href="#DejaVuSans-36"/>
       <use xlink:href="#DejaVuSans-2c" x="63.623047"/>
       <use xlink:href="#DejaVuSans-33" x="95.410156"/>
       <use xlink:href="#DejaVuSans-34" x="159.033203"/>
       <use xlink:href="#DejaVuSans-35" x="222.65625"/>
      </g>
     </g>
    </g>
    <g id="xtick_7">
     <g id="line2d_46">
      <g>
       <use xlink:href="#mbf8884a998" x="347.617959" y="129.168" style="fill: #808080; stroke: #808080; stroke-width: 0.8"/>
      </g>
     </g>
     <g id="text_7">
      <!-- 6,350 -->
      <g style="fill: #808080" transform="translate(333.303896 143.766437) scale(0.1 -0.1)">
       <use xlink:href="#DejaVuSans-36"/>
       <use xlink:href="#DejaVuSans-2c" x="63.623047"/>
       <use xlink:href="#DejaVuSans-33" x="95.410156"/>
       <use xlink:href="#DejaVuSans-35" x="159.033203"/>
       <use xlink:href="#DejaVuSans-30" x="222.65625"/>
      </g>
     </g>
    </g>
   </g>
   <g id="text_8">
    <!-- GFP -->
    <g transform="translate(249.915592 83.416112) scale(0.11 -0.11)">
     <defs>
      <path id="DejaVuSans-47" d="M 3809 666 
L 3809 1919 
L 2778 1919 
L 2778 2438 
L 4434 2438 
L 4434 434 
Q 4069 175 3628 42 
Q 3188 -91 2688 -91 
Q 1594 -91 976 548 
Q 359 1188 359 2328 
Q 359 3472 976 4111 
Q 1594 4750 2688 4750 
Q 3144 4750 3555 4637 
Q 3966 4525 4313 4306 
L 4313 3634 
Q 3963 3931 3569 4081 
Q 3175 4231 2741 4231 
Q 1884 4231 1454 3753 
Q 1025 3275 1025 2328 
Q 1025 1384 1454 906 
Q 1884 428 2741 428 
Q 3075 428 3337 486 
Q 3600 544 3809 666 
z
" transform="scale(0.015625)"/>
      <path id="DejaVuSans-46" d="M 628 4666 
L 3309 4666 
L 3309 4134 
L 1259 4134 
L 1259 2759 
L 3109 2759 
L 3109 2228 
L 1259 2228 
L 1259 0 
L 628 0 
L 628 4666 
z
" transform="scale(0.015625)"/>
      <path id="DejaVuSans-50" d="M 1259 4147 
L 1259 2394 
L 2053 2394 
Q 2494 2394 2734 2622 
Q 2975 2850 2975 3272 
Q 2975 3691 2734 3919 
Q 2494 4147 2053 4147 
L 1259 4147 
z
M 628 4666 
L 2053 4666 
Q 2838 4666 3239 4311 
Q 3641 3956 3641 3272 
Q 3641 2581 3239 2228 
Q 2838 1875 2053 1875 
L 1259 1875 
L 1259 0 
L 628 0 
L 628 4666 
z
" transform="scale(0.015625)"/>
     </defs>
     <use xlink:href="#DejaVuSans-47"/>
     <use xlink:href="#DejaVuSans-46" x="77.490234"/>
     <use xlink:href="#DejaVuSans-50" x="135.009766"/>
    </g>
   </g>
   <g id="text_9">
    <g id="patch_4">
     <path d="M 12.696393 64.610169 
L 41.201862 64.610169 
Q 44.501862 64.610169 44.501862 61.310169 
L 44.501862 50.664231 
Q 44.501862 47.364231 41.201862 47.364231 
L 12.696393 47.364231 
Q 9.396393 47.364231 9.396393 50.664231 
L 9.396393 61.310169 
Q 9.396393 64.610169 12.696393 64.610169 
z
" style="fill: #ffffff"/>
    </g>
    <!-- SV40 -->
    <g transform="translate(12.696393 59.022512) scale(0.11 -0.11)">
     <defs>
      <path id="DejaVuSans-53" d="M 3425 4513 
L 3425 3897 
Q 3066 4069 2747 4153 
Q 2428 4238 2131 4238 
Q 1616 4238 1336 4038 
Q 1056 3838 1056 3469 
Q 1056 3159 1242 3001 
Q 1428 2844 1947 2747 
L 2328 2669 
Q 3034 2534 3370 2195 
Q 3706 1856 3706 1288 
Q 3706 609 3251 259 
Q 2797 -91 1919 -91 
Q 1588 -91 1214 -16 
Q 841 59 441 206 
L 441 856 
Q 825 641 1194 531 
Q 1563 422 1919 422 
Q 2459 422 2753 634 
Q 3047 847 3047 1241 
Q 3047 1584 2836 1778 
Q 2625 1972 2144 2069 
L 1759 2144 
Q 1053 2284 737 2584 
Q 422 2884 422 3419 
Q 422 4038 858 4394 
Q 1294 4750 2059 4750 
Q 2388 4750 2728 4690 
Q 3069 4631 3425 4513 
z
" transform="scale(0.015625)"/>
      <path id="DejaVuSans-56" d="M 1831 0 
L 50 4666 
L 709 4666 
L 2188 738 
L 3669 4666 
L 4325 4666 
L 2547 0 
L 1831 0 
z
" transform="scale(0.015625)"/>
     </defs>
     <use xlink:href="#DejaVuSans-53"/>
     <use xlink:href="#DejaVuSans-56" x="63.476562"/>
     <use xlink:href="#DejaVuSans-34" x="131.884766"/>
     <use xlink:href="#DejaVuSans-30" x="195.507812"/>
    </g>
   </g>
   <g id="text_10">
    <!-- A -->
    <g transform="translate(17.751719 100.491632) scale(0.11 -0.11)">
     <defs>
      <path id="DejaVuSans-41" d="M 2188 4044 
L 1331 1722 
L 3047 1722 
L 2188 4044 
z
M 1831 4666 
L 2547 4666 
L 4325 0 
L 3669 0 
L 3244 1197 
L 1141 1197 
L 716 0 
L 50 0 
L 1831 4666 
z
" transform="scale(0.015625)"/>
     </defs>
     <use xlink:href="#DejaVuSans-41"/>
    </g>
   </g>
   <g id="text_11">
    <!-- G -->
    <g transform="translate(28.122552 100.491632) scale(0.11 -0.11)">
     <use xlink:href="#DejaVuSans-47"/>
    </g>
   </g>
   <g id="text_12">
    <!-- A -->
    <g transform="translate(39.491978 100.491632) scale(0.11 -0.11)">
     <use xlink:href="#DejaVuSans-41"/>
    </g>
   </g>
   <g id="text_13">
    <!-- G -->
    <g transform="translate(49.862811 100.491632) scale(0.11 -0.11)">
     <use xlink:href="#DejaVuSans-47"/>
    </g>
   </g>
   <g id="text_14">
    <!-- T -->
    <g transform="translate(61.635285 100.491632) scale(0.11 -0.11)">
     <defs>
      <path id="DejaVuSans-54" d="M -19 4666 
L 3928 4666 
L 3928 4134 
L 2272 4134 
L 2272 0 
L 1638 0 
L 1638 4134 
L -19 4134 
L -19 4666 
z
" transform="scale(0.015625)"/>
     </defs>
     <use xlink:href="#DejaVuSans-54"/>
    </g>
   </g>
   <g id="text_15">
    <!-- C -->
    <g transform="translate(72.024165 100.491632) scale(0.11 -0.11)">
     <defs>
      <path id="DejaVuSans-43" d="M 4122 4306 
L 4122 3641 
Q 3803 3938 3442 4084 
Q 3081 4231 2675 4231 
Q 1875 4231 1450 3742 
Q 1025 3253 1025 2328 
Q 1025 1406 1450 917 
Q 1875 428 2675 428 
Q 3081 428 3442 575 
Q 3803 722 4122 1019 
L 4122 359 
Q 3791 134 3420 21 
Q 3050 -91 2638 -91 
Q 1578 -91 968 557 
Q 359 1206 359 2328 
Q 359 3453 968 4101 
Q 1578 4750 2638 4750 
Q 3056 4750 3426 4639 
Q 3797 4528 4122 4306 
z
" transform="scale(0.015625)"/>
     </defs>
     <use xlink:href="#DejaVuSans-43"/>
    </g>
   </g>
   <g id="text_16">
    <!-- G -->
    <g transform="translate(82.473201 100.491632) scale(0.11 -0.11)">
     <use xlink:href="#DejaVuSans-47"/>
    </g>
   </g>
   <g id="text_17">
    <!-- C -->
    <g transform="translate(93.764425 100.491632) scale(0.11 -0.11)">
     <use xlink:href="#DejaVuSans-43"/>
    </g>
   </g>
   <g id="text_18">
    <!-- G -->
    <g transform="translate(104.213461 100.491632) scale(0.11 -0.11)">
     <use xlink:href="#DejaVuSans-47"/>
    </g>
   </g>
   <g id="text_19">
    <!-- G -->
    <g transform="translate(115.083591 100.491632) scale(0.11 -0.11)">
     <use xlink:href="#DejaVuSans-47"/>
    </g>
   </g>
   <g id="text_20">
    <!-- C -->
    <g transform="translate(126.374814 100.491632) scale(0.11 -0.11)">
     <use xlink:href="#DejaVuSans-43"/>
    </g>
   </g>
   <g id="text_21">
    <!-- C -->
    <g transform="translate(137.244944 100.491632) scale(0.11 -0.11)">
     <use xlink:href="#DejaVuSans-43"/>
    </g>
   </g>
   <g id="text_22">
    <!-- G -->
    <g transform="translate(147.69398 100.491632) scale(0.11 -0.11)">
     <use xlink:href="#DejaVuSans-47"/>
    </g>
   </g>
   <g id="text_23">
    <!-- C -->
    <g transform="translate(158.985204 100.491632) scale(0.11 -0.11)">
     <use xlink:href="#DejaVuSans-43"/>
    </g>
   </g>
   <g id="text_24">
    <!-- T -->
    <g transform="translate(170.336584 100.491632) scale(0.11 -0.11)">
     <use xlink:href="#DejaVuSans-54"/>
    </g>
   </g>
   <g id="text_25">
    <!-- T -->
    <g transform="translate(181.206714 100.491632) scale(0.11 -0.11)">
     <use xlink:href="#DejaVuSans-54"/>
    </g>
   </g>
   <g id="text_26">
    <!-- T -->
    <g transform="translate(192.076844 100.491632) scale(0.11 -0.11)">
     <use xlink:href="#DejaVuSans-54"/>
    </g>
   </g>
   <g id="text_27">
    <!-- A -->
    <g transform="translate(202.543927 100.491632) scale(0.11 -0.11)">
     <use xlink:href="#DejaVuSans-41"/>
    </g>
   </g>
   <g id="text_28">
    <!-- C -->
    <g transform="translate(213.335853 100.491632) scale(0.11 -0.11)">
     <use xlink:href="#DejaVuSans-43"/>
    </g>
   </g>
   <g id="text_29">
    <!-- T -->
    <g transform="translate(224.687233 100.491632) scale(0.11 -0.11)">
     <use xlink:href="#DejaVuSans-54"/>
    </g>
   </g>
   <g id="text_30">
    <!-- T -->
    <g transform="translate(235.557363 100.491632) scale(0.11 -0.11)">
     <use xlink:href="#DejaVuSans-54"/>
    </g>
   </g>
   <g id="text_31">
    <!-- G -->
    <g transform="translate(245.525149 100.491632) scale(0.11 -0.11)">
     <use xlink:href="#DejaVuSans-47"/>
    </g>
   </g>
   <g id="text_32">
    <!-- T -->
    <g transform="translate(257.297623 100.491632) scale(0.11 -0.11)">
     <use xlink:href="#DejaVuSans-54"/>
    </g>
   </g>
   <g id="text_33">
    <!-- A -->
    <g transform="translate(267.764706 100.491632) scale(0.11 -0.11)">
     <use xlink:href="#DejaVuSans-41"/>
    </g>
   </g>
   <g id="text_34">
    <!-- C -->
    <g transform="translate(278.556633 100.491632) scale(0.11 -0.11)">
     <use xlink:href="#DejaVuSans-43"/>
    </g>
   </g>
   <g id="text_35">
    <!-- A -->
    <g transform="translate(289.504966 100.491632) scale(0.11 -0.11)">
     <use xlink:href="#DejaVuSans-41"/>
    </g>
   </g>
   <g id="text_36">
    <!-- G -->
    <g transform="translate(299.875798 100.491632) scale(0.11 -0.11)">
     <use xlink:href="#DejaVuSans-47"/>
    </g>
   </g>
   <g id="text_37">
    <!-- C -->
    <g transform="translate(311.167022 100.491632) scale(0.11 -0.11)">
     <use xlink:href="#DejaVuSans-43"/>
    </g>
   </g>
   <g id="text_38">
    <!-- T -->
    <g transform="translate(322.518402 100.491632) scale(0.11 -0.11)">
     <use xlink:href="#DejaVuSans-54"/>
    </g>
   </g>
   <g id="text_39">
    <!-- C -->
    <g transform="translate(332.907282 100.491632) scale(0.11 -0.11)">
     <use xlink:href="#DejaVuSans-43"/>
    </g>
   </g>
   <g id="text_40">
    <!-- * -->
    <g transform="translate(192.559812 117.567152) scale(0.11 -0.11)">
     <defs>
      <path id="DejaVuSans-Bold-2a" d="M 3219 3803 
L 2188 3263 
L 3219 2719 
L 2981 2278 
L 1941 2853 
L 1941 1778 
L 1409 1778 
L 1409 2853 
L 366 2278 
L 128 2719 
L 1172 3263 
L 128 3803 
L 366 4244 
L 1409 3675 
L 1409 4750 
L 1941 4750 
L 1941 3675 
L 2981 4244 
L 3219 3803 
z
" transform="scale(0.015625)"/>
     </defs>
     <use xlink:href="#DejaVuSans-Bold-2a"/>
    </g>
   </g>
   <g id="text_41">
    <!-- Lys -->
    <g transform="translate(218.054577 117.481215) scale(0.11 -0.11)">
     <defs>
      <path id="DejaVuSans-Bold-4c" d="M 588 4666 
L 1791 4666 
L 1791 909 
L 3903 909 
L 3903 0 
L 588 0 
L 588 4666 
z
" transform="scale(0.015625)"/>
      <path id="DejaVuSans-Bold-79" d="M 78 3500 
L 1197 3500 
L 2138 1125 
L 2938 3500 
L 4056 3500 
L 2584 -331 
Q 2363 -916 2067 -1148 
Q 1772 -1381 1288 -1381 
L 641 -1381 
L 641 -647 
L 991 -647 
Q 1275 -647 1404 -556 
Q 1534 -466 1606 -231 
L 1638 -134 
L 78 3500 
z
" transform="scale(0.015625)"/>
      <path id="DejaVuSans-Bold-73" d="M 3272 3391 
L 3272 2541 
Q 2913 2691 2578 2766 
Q 2244 2841 1947 2841 
Q 1628 2841 1473 2761 
Q 1319 2681 1319 2516 
Q 1319 2381 1436 2309 
Q 1553 2238 1856 2203 
L 2053 2175 
Q 2913 2066 3209 1816 
Q 3506 1566 3506 1031 
Q 3506 472 3093 190 
Q 2681 -91 1863 -91 
Q 1516 -91 1145 -36 
Q 775 19 384 128 
L 384 978 
Q 719 816 1070 734 
Q 1422 653 1784 653 
Q 2113 653 2278 743 
Q 2444 834 2444 1013 
Q 2444 1163 2330 1236 
Q 2216 1309 1875 1350 
L 1678 1375 
Q 931 1469 631 1722 
Q 331 1975 331 2491 
Q 331 3047 712 3315 
Q 1094 3584 1881 3584 
Q 2191 3584 2531 3537 
Q 2872 3491 3272 3391 
z
" transform="scale(0.015625)"/>
     </defs>
     <use xlink:href="#DejaVuSans-Bold-4c"/>
     <use xlink:href="#DejaVuSans-Bold-79" x="56.970703"/>
     <use xlink:href="#DejaVuSans-Bold-73" x="122.15625"/>
    </g>
   </g>
   <g id="text_42">
    <!-- Tyr -->
    <g transform="translate(251.260513 117.481215) scale(0.11 -0.11)">
     <defs>
      <path id="DejaVuSans-Bold-54" d="M 31 4666 
L 4331 4666 
L 4331 3756 
L 2784 3756 
L 2784 0 
L 1581 0 
L 1581 3756 
L 31 3756 
L 31 4666 
z
" transform="scale(0.015625)"/>
      <path id="DejaVuSans-Bold-72" d="M 3138 2547 
Q 2991 2616 2845 2648 
Q 2700 2681 2553 2681 
Q 2122 2681 1889 2404 
Q 1656 2128 1656 1613 
L 1656 0 
L 538 0 
L 538 3500 
L 1656 3500 
L 1656 2925 
Q 1872 3269 2151 3426 
Q 2431 3584 2822 3584 
Q 2878 3584 2943 3579 
Q 3009 3575 3134 3559 
L 3138 2547 
z
" transform="scale(0.015625)"/>
     </defs>
     <use xlink:href="#DejaVuSans-Bold-54"/>
     <use xlink:href="#DejaVuSans-Bold-79" x="56.337891"/>
     <use xlink:href="#DejaVuSans-Bold-72" x="121.523438"/>
    </g>
   </g>
   <g id="text_43">
    <!-- Leu -->
    <g transform="translate(282.116919 117.567152) scale(0.11 -0.11)">
     <defs>
      <path id="DejaVuSans-Bold-65" d="M 4031 1759 
L 4031 1441 
L 1416 1441 
Q 1456 1047 1700 850 
Q 1944 653 2381 653 
Q 2734 653 3104 758 
Q 3475 863 3866 1075 
L 3866 213 
Q 3469 63 3072 -14 
Q 2675 -91 2278 -91 
Q 1328 -91 801 392 
Q 275 875 275 1747 
Q 275 2603 792 3093 
Q 1309 3584 2216 3584 
Q 3041 3584 3536 3087 
Q 4031 2591 4031 1759 
z
M 2881 2131 
Q 2881 2450 2695 2645 
Q 2509 2841 2209 2841 
Q 1884 2841 1681 2658 
Q 1478 2475 1428 2131 
L 2881 2131 
z
" transform="scale(0.015625)"/>
      <path id="DejaVuSans-Bold-75" d="M 500 1363 
L 500 3500 
L 1625 3500 
L 1625 3150 
Q 1625 2866 1622 2436 
Q 1619 2006 1619 1863 
Q 1619 1441 1641 1255 
Q 1663 1069 1716 984 
Q 1784 875 1895 815 
Q 2006 756 2150 756 
Q 2500 756 2700 1025 
Q 2900 1294 2900 1772 
L 2900 3500 
L 4019 3500 
L 4019 0 
L 2900 0 
L 2900 506 
Q 2647 200 2364 54 
Q 2081 -91 1741 -91 
Q 1134 -91 817 281 
Q 500 653 500 1363 
z
" transform="scale(0.015625)"/>
     </defs>
     <use xlink:href="#DejaVuSans-Bold-4c"/>
     <use xlink:href="#DejaVuSans-Bold-65" x="63.720703"/>
     <use xlink:href="#DejaVuSans-Bold-75" x="131.542969"/>
    </g>
   </g>
   <g id="text_44">
    <!-- Glu -->
    <g transform="translate(315.562621 117.567152) scale(0.11 -0.11)">
     <defs>
      <path id="DejaVuSans-Bold-47" d="M 4781 347 
Q 4331 128 3847 18 
Q 3363 -91 2847 -91 
Q 1681 -91 1000 561 
Q 319 1213 319 2328 
Q 319 3456 1012 4103 
Q 1706 4750 2913 4750 
Q 3378 4750 3804 4662 
Q 4231 4575 4609 4403 
L 4609 3438 
Q 4219 3659 3833 3768 
Q 3447 3878 3059 3878 
Q 2341 3878 1952 3476 
Q 1563 3075 1563 2328 
Q 1563 1588 1938 1184 
Q 2313 781 3003 781 
Q 3191 781 3352 804 
Q 3513 828 3641 878 
L 3641 1784 
L 2906 1784 
L 2906 2591 
L 4781 2591 
L 4781 347 
z
" transform="scale(0.015625)"/>
      <path id="DejaVuSans-Bold-6c" d="M 538 4863 
L 1656 4863 
L 1656 0 
L 538 0 
L 538 4863 
z
" transform="scale(0.015625)"/>
     </defs>
     <use xlink:href="#DejaVuSans-Bold-47"/>
     <use xlink:href="#DejaVuSans-Bold-6c" x="82.080078"/>
     <use xlink:href="#DejaVuSans-Bold-75" x="116.357422"/>
    </g>
   </g>
  </g>
 </g>
 <defs>
  <clipPath id="p737f45f55f">
   <rect x="12.817959" y="7.2" width="334.8" height="121.968"/>
  </clipPath>
 </defs>
</svg>
