<?xml version="1.0" encoding="utf-8" standalone="no"?>
<!DOCTYPE svg PUBLIC "-//W3C//DTD SVG 1.1//EN"
  "http://www.w3.org/Graphics/SVG/1.1/DTD/svg11.dtd">
<svg xmlns:xlink="http://www.w3.org/1999/xlink" width="236.16pt" height="335.16pt" viewBox="0 0 236.16 335.16" xmlns="http://www.w3.org/2000/svg" version="1.1">
 <metadata>
  <rdf:RDF xmlns:dc="http://purl.org/dc/elements/1.1/" xmlns:cc="http://creativecommons.org/ns#" xmlns:rdf="http://www.w3.org/1999/02/22-rdf-syntax-ns#">
   <cc:Work>
    <dc:type rdf:resource="http://purl.org/dc/dcmitype/StillImage"/>
    <dc:date>2024-06-25T16:48:47.286391</dc:date>
    <dc:format>image/svg+xml</dc:format>
    <dc:creator>
     <cc:Agent>
      <dc:title>Matplotlib v3.7.2, https://matplotlib.org/</dc:title>
     </cc:Agent>
    </dc:creator>
   </cc:Work>
  </rdf:RDF>
 </metadata>
 <defs>
  <style type="text/css">*{stroke-linejoin: round; stroke-linecap: butt}</style>
 </defs>
 <g id="figure_1">
  <g id="patch_1">
   <path d="M 0 335.16 
L 236.16 335.16 
L 236.16 0 
L 0 0 
z
" style="fill: #ffffff"/>
  </g>
  <g id="axes_1">
   <g id="line2d_1">
    <path d="M 188.613803 62.64 
L 188.613803 181.05747 
" clip-path="url(#p93af80a8e3)" style="fill: none; stroke: #000000; stroke-width: 0.5; stroke-linecap: square"/>
   </g>
   <g id="line2d_2">
    <path d="M 60.488937 82.44 
L 60.488937 162.711724 
" clip-path="url(#p93af80a8e3)" style="fill: none; stroke: #000000; stroke-width: 0.5; stroke-linecap: square"/>
   </g>
   <g id="line2d_3">
    <path d="M 35.548823 102.24 
L 35.548823 264.209677 
" clip-path="url(#p93af80a8e3)" style="fill: none; stroke: #000000; stroke-width: 0.5; stroke-linecap: square"/>
   </g>
   <g id="line2d_4">
    <path d="M 78.67572 42.84 
L 78.67572 148.378161 
" clip-path="url(#p93af80a8e3)" style="fill: none; stroke: #000000; stroke-width: 0.5; stroke-linecap: square"/>
   </g>
   <g id="line2d_5">
    <path d="M 196.133689 82.44 
L 196.133689 203.653846 
" clip-path="url(#p93af80a8e3)" style="fill: none; stroke: #000000; stroke-width: 0.5; stroke-linecap: square"/>
   </g>
   <g id="line2d_6">
    <path d="M 48.054357 62.64 
L 48.054357 180.079334 
" clip-path="url(#p93af80a8e3)" style="fill: none; stroke: #000000; stroke-width: 0.5; stroke-linecap: square"/>
   </g>
   <g id="line2d_7">
    <path d="M 175.749823 102.24 
L 175.749823 162.795274 
" clip-path="url(#p93af80a8e3)" style="fill: none; stroke: #000000; stroke-width: 0.5; stroke-linecap: square"/>
   </g>
   <g id="patch_2">
    <path d="M 118.08 296.28 
C 139.084086 296.28 159.230726 287.934988 174.082857 273.082857 
C 188.934988 258.230726 197.28 238.084086 197.28 217.08 
C 197.28 196.075914 188.934988 175.929274 174.082857 161.077143 
C 159.230726 146.225012 139.084086 137.88 118.08 137.88 
C 97.075914 137.88 76.929274 146.225012 62.077143 161.077143 
C 47.225012 175.929274 38.88 196.075914 38.88 217.08 
C 38.88 238.084086 47.225012 258.230726 62.077143 273.082857 
C 76.929274 287.934988 97.075914 296.28 118.08 296.28 
L 118.08 296.28 
z
" clip-path="url(#p93af80a8e3)" style="fill: none; stroke: #000000; stroke-linejoin: miter"/>
   </g>
   <g id="patch_3">
    <path d="M 202.790139 214.684608 
C 203.211689 229.592208 199.690622 244.350244 192.584094 257.461747 
C 185.477567 270.57325 175.034269 281.579388 162.313508 289.363762 
L 162.313508 289.363762 
L 153.374618 287.980846 
L 156.525946 279.906074 
L 156.525946 279.906074 
C 167.582308 273.140216 176.659193 263.574133 182.835895 252.178154 
C 189.012596 240.782175 192.072963 227.955096 191.706569 214.998023 
L 191.706569 214.998023 
z
" clip-path="url(#p93af80a8e3)" style="fill: #d1e9f1; stroke: #000000; stroke-linejoin: miter"/>
   </g>
   <g id="patch_4">
    <path d="M 81.66239 140.560047 
C 94.557398 134.423015 108.796893 131.643978 123.053191 132.482051 
C 137.309488 133.320125 151.125292 137.748426 163.212421 145.354062 
L 163.212421 145.354062 
L 165.941687 153.977711 
L 157.307244 154.738764 
L 157.307244 154.738764 
C 146.801609 148.128258 134.793481 144.279361 122.402493 143.550942 
C 110.011506 142.822523 97.635122 145.237948 86.427311 150.572003 
L 86.427311 150.572003 
z
" clip-path="url(#p93af80a8e3)" style="fill: #d1e9f1; stroke: #000000; stroke-linejoin: miter"/>
   </g>
   <g id="patch_5">
    <path d="M 86.545822 295.738382 
C 74.254577 290.810817 63.287714 283.0702 54.527801 273.139464 
C 45.767888 263.208728 39.456388 251.361611 36.101226 238.551518 
L 36.101226 238.551518 
L 40.006928 230.392982 
L 46.82742 235.74216 
L 46.82742 235.74216 
C 49.74359 246.876166 55.229286 257.173194 62.843042 265.804581 
C 70.456798 274.435969 79.988744 281.163794 90.671789 285.446632 
L 90.671789 285.446632 
z
" clip-path="url(#p93af80a8e3)" style="fill: #00008b; stroke: #000000; stroke-linejoin: miter"/>
   </g>
   <g id="patch_6">
    <path d="M 39.353229 185.716948 
C 37.300921 190.8686 35.759224 196.209282 34.750323 201.662136 
C 33.741423 207.114989 33.270182 212.653729 33.343384 218.198649 
L 33.343384 218.198649 
L 39.279373 225.023621 
L 44.430418 218.052284 
L 44.430418 218.052284 
C 44.366794 213.232868 44.776377 208.418822 45.653272 203.679426 
C 46.530167 198.94003 47.870147 194.298129 49.653928 189.820525 
L 49.653928 189.820525 
z
" clip-path="url(#p93af80a8e3)" style="fill: #d1e9f1; stroke: #000000; stroke-linejoin: miter"/>
   </g>
   <g id="patch_7">
    <path d="M 199.907198 195.037877 
C 198.693239 190.531285 197.109055 186.132673 195.170815 181.886936 
C 193.232575 177.641198 190.946895 173.562829 188.337105 169.693454 
L 188.337105 169.693454 
L 179.631164 167.239312 
L 179.144587 175.893563 
L 179.144587 175.893563 
C 181.412909 179.256664 183.399528 182.801415 185.084166 186.491636 
C 186.768805 190.181856 188.145713 194.004949 189.200836 197.921893 
L 189.200836 197.921893 
z
" clip-path="url(#p93af80a8e3)" style="fill: #ffd383; stroke: #000000; stroke-linejoin: miter"/>
   </g>
   <g id="patch_8">
    <path d="M 152.780288 294.393877 
C 148.664474 296.241151 144.407714 297.756821 140.050608 298.926429 
C 135.693503 300.096037 131.24995 300.915853 126.762332 301.378058 
L 126.762332 301.378058 
L 119.29704 296.270649 
L 125.626326 290.348406 
L 125.626326 290.348406 
C 129.526779 289.946676 133.388933 289.234126 137.175949 288.21755 
C 140.962966 287.200975 144.662767 285.883617 148.240064 284.278042 
L 148.240064 284.278042 
z
" clip-path="url(#p93af80a8e3)" style="fill: #d1e9f1; stroke: #000000; stroke-linejoin: miter"/>
   </g>
   <g id="patch_9">
    <path d="M 69.087253 147.933371 
C 65.540088 150.446659 62.19157 153.229174 59.071363 156.256269 
C 55.951156 159.283363 53.0685 162.546071 50.448933 166.015489 
L 50.448933 166.015489 
L 50.954508 175.04658 
L 59.297858 172.696827 
L 59.297858 172.696827 
C 61.574678 169.681351 64.080163 166.84554 66.792119 164.214514 
C 69.504075 161.583488 72.414469 159.16504 75.497519 156.980594 
L 75.497519 156.980594 
z
" clip-path="url(#p93af80a8e3)" style="fill: #ffd383; stroke: #000000; stroke-linejoin: miter"/>
   </g>
   <g id="patch_10">
    <path d="M 45.603357 286.824371 
C 49.127181 290.486242 52.923466 293.875793 56.959588 296.963893 
C 60.99571 300.051993 65.260073 302.82977 69.71603 305.273352 
L 69.71603 305.273352 
L 79.818544 304.078061 
L 75.047491 295.551251 
L 75.047491 295.551251 
C 71.082742 293.377039 67.288467 290.905474 63.697272 288.157794 
C 60.106076 285.410115 56.728279 282.394216 53.592908 279.136015 
L 53.592908 279.136015 
z
" clip-path="url(#p93af80a8e3)" style="fill: #ffff00; stroke: #000000; stroke-linejoin: miter"/>
   </g>
   <g id="patch_11">
    <path d="M 22.832613 249.40764 
C 24.425287 254.10016 26.362564 258.668572 28.62861 263.075543 
C 30.894657 267.482513 33.483283 271.716004 36.373335 275.741418 
L 36.373335 275.741418 
L 46.001512 279.025889 
L 45.380369 269.274805 
L 45.380369 269.274805 
C 42.808906 265.693138 40.50564 261.926331 38.489393 258.005168 
C 36.473147 254.084005 34.749429 250.019197 33.332325 245.843963 
L 33.332325 245.843963 
z
" clip-path="url(#p93af80a8e3)" style="fill: #ffd383; stroke: #000000; stroke-linejoin: miter"/>
   </g>
   <g id="patch_12">
    <path d="M 81.396369 140.687221 
C 80.469736 141.132187 79.551276 141.593977 78.641445 142.072361 
C 77.731613 142.550745 76.830561 143.045643 75.938736 143.55681 
L 75.938736 143.55681 
L 73.803557 151.412378 
L 81.452546 153.176667 
L 81.452546 153.176667 
C 82.227684 152.732381 83.010841 152.302236 83.801629 151.886445 
C 84.592417 151.470653 85.390705 151.069284 86.196096 150.682537 
L 86.196096 150.682537 
z
" clip-path="url(#p93af80a8e3)" style="fill: #ff0000; stroke: #000000; stroke-linejoin: miter"/>
   </g>
   <g id="patch_13">
    <path d="M 202.423352 208.849291 
C 202.323514 207.826218 202.205071 206.805047 202.06808 205.786285 
C 201.931089 204.767522 201.775573 203.751336 201.601609 202.738231 
L 201.601609 202.738231 
L 194.956345 198.036168 
L 190.673548 204.614725 
L 190.673548 204.614725 
C 190.82475 205.495273 190.959918 206.3785 191.078985 207.263967 
C 191.198052 208.149434 191.300998 209.036994 191.387773 209.926206 
L 191.387773 209.926206 
z
" clip-path="url(#p93af80a8e3)" style="fill: #ff0000; stroke: #000000; stroke-linejoin: miter"/>
   </g>
   <g id="patch_14">
    <path d="M 45.970293 172.56331 
C 45.475492 173.364806 44.994088 174.174496 44.526283 174.992042 
C 44.058477 175.809588 43.604334 176.634877 43.164044 177.467564 
L 43.164044 177.467564 
L 45.753688 184.807029 
L 52.966132 182.6505 
L 52.966132 182.6505 
C 53.348814 181.926762 53.743536 181.209455 54.150134 180.498878 
C 54.556731 179.7883 54.975147 179.084551 55.405208 178.387924 
L 55.405208 178.387924 
z
" clip-path="url(#p93af80a8e3)" style="fill: #ff0000; stroke: #000000; stroke-linejoin: miter"/>
   </g>
   <g id="patch_15">
    <path d="M 183.535845 163.25549 
C 182.937588 162.527951 182.327243 161.810438 181.705064 161.103248 
C 181.082885 160.396058 180.448959 159.699291 179.80355 159.013237 
L 179.80355 159.013237 
L 172.020983 159.088532 
L 171.727571 166.610757 
L 171.727571 166.610757 
C 172.288534 167.207048 172.839517 167.812649 173.380289 168.427309 
C 173.921062 169.041969 174.451549 169.665602 174.971529 170.297949 
L 174.971529 170.297949 
z
" clip-path="url(#p93af80a8e3)" style="fill: #ff0000; stroke: #000000; stroke-linejoin: miter"/>
   </g>
   <g id="patch_16">
    <path d="M 39.353229 185.716948 
C 39.438103 185.503898 39.523842 185.291194 39.610443 185.07884 
C 39.697045 184.866487 39.784507 184.654486 39.87283 184.442842 
L 39.87283 184.442842 
L 45.494065 185.395272 
L 50.105544 188.713125 
L 50.105544 188.713125 
C 50.028778 188.897076 49.952758 189.081339 49.877488 189.265908 
C 49.802218 189.450477 49.727697 189.635351 49.653928 189.820525 
L 49.653928 189.820525 
z
" clip-path="url(#p93af80a8e3)" style="fill: #00008b; stroke: #000000; stroke-linejoin: miter"/>
   </g>
   <g id="patch_17">
    <path d="M 152.780288 294.393877 
C 152.989514 294.299971 153.198358 294.205217 153.406815 294.109616 
C 153.615272 294.014014 153.82334 293.917568 154.031014 293.820277 
L 154.031014 293.820277 
L 152.839122 288.244903 
L 149.327143 283.779493 
L 149.327143 283.779493 
C 149.146641 283.864054 148.965797 283.947882 148.784615 284.030974 
C 148.603433 284.114067 148.421914 284.196423 148.240064 284.278042 
L 148.240064 284.278042 
z
" clip-path="url(#p93af80a8e3)" style="fill: #00008b; stroke: #000000; stroke-linejoin: miter"/>
   </g>
   <g id="patch_18">
    <path d="M 174.084419 153.479288 
C 174.204285 153.584837 174.323852 153.690726 174.44312 153.796951 
C 174.562387 153.903177 174.681354 154.00974 174.800019 154.116638 
L 174.800019 154.116638 
L 171.751371 158.838915 
L 167.378708 162.354835 
L 167.378708 162.354835 
C 167.27557 162.261923 167.172168 162.169303 167.068506 162.076976 
C 166.964844 161.984649 166.86092 161.892616 166.756738 161.800876 
L 166.756738 161.800876 
z
" clip-path="url(#p93af80a8e3)" style="fill: #00008b; stroke: #000000; stroke-linejoin: miter"/>
   </g>
   <g id="patch_19">
    <path d="M 202.616328 211.150855 
C 202.605154 210.991532 202.593529 210.832241 202.581454 210.672984 
C 202.569379 210.513727 202.556853 210.354504 202.543878 210.195318 
L 202.543878 210.195318 
L 196.9404 209.753515 
L 191.492529 211.096117 
L 191.492529 211.096117 
C 191.503807 211.234476 191.514694 211.372865 191.525189 211.511285 
C 191.535684 211.649705 191.545788 211.788154 191.5555 211.926631 
L 191.5555 211.926631 
z
" clip-path="url(#p93af80a8e3)" style="fill: #00008b; stroke: #000000; stroke-linejoin: miter"/>
   </g>
   <g id="text_1">
    <g id="patch_20">
     <path d="M 177.872475 71.262969 
L 199.355131 71.262969 
Q 202.655131 71.262969 202.655131 67.962969 
L 202.655131 57.317031 
Q 202.655131 54.017031 199.355131 54.017031 
L 177.872475 54.017031 
Q 174.572475 54.017031 174.572475 57.317031 
L 174.572475 67.962969 
Q 174.572475 71.262969 177.872475 71.262969 
z
" style="fill: #fff6e5; stroke: #808080; stroke-width: 0.3; stroke-linejoin: miter"/>
    </g>
    <!-- GFP -->
    <g transform="translate(177.872475 65.675312) scale(0.11 -0.11)">
     <defs>
      <path id="DejaVuSans-47" d="M 3809 666 
L 3809 1919 
L 2778 1919 
L 2778 2438 
L 4434 2438 
L 4434 434 
Q 4069 175 3628 42 
Q 3188 -91 2688 -91 
Q 1594 -91 976 548 
Q 359 1188 359 2328 
Q 359 3472 976 4111 
Q 1594 4750 2688 4750 
Q 3144 4750 3555 4637 
Q 3966 4525 4313 4306 
L 4313 3634 
Q 3963 3931 3569 4081 
Q 3175 4231 2741 4231 
Q 1884 4231 1454 3753 
Q 1025 3275 1025 2328 
Q 1025 1384 1454 906 
Q 1884 428 2741 428 
Q 3075 428 3337 486 
Q 3600 544 3809 666 
z
" transform="scale(0.015625)"/>
      <path id="DejaVuSans-46" d="M 628 4666 
L 3309 4666 
L 3309 4134 
L 1259 4134 
L 1259 2759 
L 3109 2759 
L 3109 2228 
L 1259 2228 
L 1259 0 
L 628 0 
L 628 4666 
z
" transform="scale(0.015625)"/>
      <path id="DejaVuSans-50" d="M 1259 4147 
L 1259 2394 
L 2053 2394 
Q 2494 2394 2734 2622 
Q 2975 2850 2975 3272 
Q 2975 3691 2734 3919 
Q 2494 4147 2053 4147 
L 1259 4147 
z
M 628 4666 
L 2053 4666 
Q 2838 4666 3239 4311 
Q 3641 3956 3641 3272 
Q 3641 2581 3239 2228 
Q 2838 1875 2053 1875 
L 1259 1875 
L 1259 0 
L 628 0 
L 628 4666 
z
" transform="scale(0.015625)"/>
     </defs>
     <use xlink:href="#DejaVuSans-47"/>
     <use xlink:href="#DejaVuSans-46" x="77.490234"/>
     <use xlink:href="#DejaVuSans-50" x="135.009766"/>
    </g>
   </g>
   <g id="text_2">
    <g id="patch_21">
     <path d="M 42.93878 91.062969 
L 78.039093 91.062969 
Q 81.339093 91.062969 81.339093 87.762969 
L 81.339093 77.117031 
Q 81.339093 73.817031 78.039093 73.817031 
L 42.93878 73.817031 
Q 39.63878 73.817031 39.63878 77.117031 
L 39.63878 87.762969 
Q 39.63878 91.062969 42.93878 91.062969 
z
" style="fill: #fff6e5; stroke: #808080; stroke-width: 0.3; stroke-linejoin: miter"/>
    </g>
    <!-- DsRed -->
    <g transform="translate(42.93878 85.475313) scale(0.11 -0.11)">
     <defs>
      <path id="DejaVuSans-44" d="M 1259 4147 
L 1259 519 
L 2022 519 
Q 2988 519 3436 956 
Q 3884 1394 3884 2338 
Q 3884 3275 3436 3711 
Q 2988 4147 2022 4147 
L 1259 4147 
z
M 628 4666 
L 1925 4666 
Q 3281 4666 3915 4102 
Q 4550 3538 4550 2338 
Q 4550 1131 3912 565 
Q 3275 0 1925 0 
L 628 0 
L 628 4666 
z
" transform="scale(0.015625)"/>
      <path id="DejaVuSans-73" d="M 2834 3397 
L 2834 2853 
Q 2591 2978 2328 3040 
Q 2066 3103 1784 3103 
Q 1356 3103 1142 2972 
Q 928 2841 928 2578 
Q 928 2378 1081 2264 
Q 1234 2150 1697 2047 
L 1894 2003 
Q 2506 1872 2764 1633 
Q 3022 1394 3022 966 
Q 3022 478 2636 193 
Q 2250 -91 1575 -91 
Q 1294 -91 989 -36 
Q 684 19 347 128 
L 347 722 
Q 666 556 975 473 
Q 1284 391 1588 391 
Q 1994 391 2212 530 
Q 2431 669 2431 922 
Q 2431 1156 2273 1281 
Q 2116 1406 1581 1522 
L 1381 1569 
Q 847 1681 609 1914 
Q 372 2147 372 2553 
Q 372 3047 722 3315 
Q 1072 3584 1716 3584 
Q 2034 3584 2315 3537 
Q 2597 3491 2834 3397 
z
" transform="scale(0.015625)"/>
      <path id="DejaVuSans-52" d="M 2841 2188 
Q 3044 2119 3236 1894 
Q 3428 1669 3622 1275 
L 4263 0 
L 3584 0 
L 2988 1197 
Q 2756 1666 2539 1819 
Q 2322 1972 1947 1972 
L 1259 1972 
L 1259 0 
L 628 0 
L 628 4666 
L 2053 4666 
Q 2853 4666 3247 4331 
Q 3641 3997 3641 3322 
Q 3641 2881 3436 2590 
Q 3231 2300 2841 2188 
z
M 1259 4147 
L 1259 2491 
L 2053 2491 
Q 2509 2491 2742 2702 
Q 2975 2913 2975 3322 
Q 2975 3731 2742 3939 
Q 2509 4147 2053 4147 
L 1259 4147 
z
" transform="scale(0.015625)"/>
      <path id="DejaVuSans-65" d="M 3597 1894 
L 3597 1613 
L 953 1613 
Q 991 1019 1311 708 
Q 1631 397 2203 397 
Q 2534 397 2845 478 
Q 3156 559 3463 722 
L 3463 178 
Q 3153 47 2828 -22 
Q 2503 -91 2169 -91 
Q 1331 -91 842 396 
Q 353 884 353 1716 
Q 353 2575 817 3079 
Q 1281 3584 2069 3584 
Q 2775 3584 3186 3129 
Q 3597 2675 3597 1894 
z
M 3022 2063 
Q 3016 2534 2758 2815 
Q 2500 3097 2075 3097 
Q 1594 3097 1305 2825 
Q 1016 2553 972 2059 
L 3022 2063 
z
" transform="scale(0.015625)"/>
      <path id="DejaVuSans-64" d="M 2906 2969 
L 2906 4863 
L 3481 4863 
L 3481 0 
L 2906 0 
L 2906 525 
Q 2725 213 2448 61 
Q 2172 -91 1784 -91 
Q 1150 -91 751 415 
Q 353 922 353 1747 
Q 353 2572 751 3078 
Q 1150 3584 1784 3584 
Q 2172 3584 2448 3432 
Q 2725 3281 2906 2969 
z
M 947 1747 
Q 947 1113 1208 752 
Q 1469 391 1925 391 
Q 2381 391 2643 752 
Q 2906 1113 2906 1747 
Q 2906 2381 2643 2742 
Q 2381 3103 1925 3103 
Q 1469 3103 1208 2742 
Q 947 2381 947 1747 
z
" transform="scale(0.015625)"/>
     </defs>
     <use xlink:href="#DejaVuSans-44"/>
     <use xlink:href="#DejaVuSans-73" x="77.001953"/>
     <use xlink:href="#DejaVuSans-52" x="129.101562"/>
     <use xlink:href="#DejaVuSans-65" x="194.083984"/>
     <use xlink:href="#DejaVuSans-64" x="255.607422"/>
    </g>
   </g>
   <g id="text_3">
    <g id="patch_22">
     <path d="M 15.613042 110.862969 
L 55.484604 110.862969 
Q 58.784604 110.862969 58.784604 107.562969 
L 58.784604 96.917031 
Q 58.784604 93.617031 55.484604 93.617031 
L 15.613042 93.617031 
Q 12.313042 93.617031 12.313042 96.917031 
L 12.313042 107.562969 
Q 12.313042 110.862969 15.613042 110.862969 
z
" style="fill: #fff6e5; stroke: #808080; stroke-width: 0.3; stroke-linejoin: miter"/>
    </g>
    <!-- Chlor-R -->
    <g transform="translate(15.613042 105.275313) scale(0.11 -0.11)">
     <defs>
      <path id="DejaVuSans-43" d="M 4122 4306 
L 4122 3641 
Q 3803 3938 3442 4084 
Q 3081 4231 2675 4231 
Q 1875 4231 1450 3742 
Q 1025 3253 1025 2328 
Q 1025 1406 1450 917 
Q 1875 428 2675 428 
Q 3081 428 3442 575 
Q 3803 722 4122 1019 
L 4122 359 
Q 3791 134 3420 21 
Q 3050 -91 2638 -91 
Q 1578 -91 968 557 
Q 359 1206 359 2328 
Q 359 3453 968 4101 
Q 1578 4750 2638 4750 
Q 3056 4750 3426 4639 
Q 3797 4528 4122 4306 
z
" transform="scale(0.015625)"/>
      <path id="DejaVuSans-68" d="M 3513 2113 
L 3513 0 
L 2938 0 
L 2938 2094 
Q 2938 2591 2744 2837 
Q 2550 3084 2163 3084 
Q 1697 3084 1428 2787 
Q 1159 2491 1159 1978 
L 1159 0 
L 581 0 
L 581 4863 
L 1159 4863 
L 1159 2956 
Q 1366 3272 1645 3428 
Q 1925 3584 2291 3584 
Q 2894 3584 3203 3211 
Q 3513 2838 3513 2113 
z
" transform="scale(0.015625)"/>
      <path id="DejaVuSans-6c" d="M 603 4863 
L 1178 4863 
L 1178 0 
L 603 0 
L 603 4863 
z
" transform="scale(0.015625)"/>
      <path id="DejaVuSans-6f" d="M 1959 3097 
Q 1497 3097 1228 2736 
Q 959 2375 959 1747 
Q 959 1119 1226 758 
Q 1494 397 1959 397 
Q 2419 397 2687 759 
Q 2956 1122 2956 1747 
Q 2956 2369 2687 2733 
Q 2419 3097 1959 3097 
z
M 1959 3584 
Q 2709 3584 3137 3096 
Q 3566 2609 3566 1747 
Q 3566 888 3137 398 
Q 2709 -91 1959 -91 
Q 1206 -91 779 398 
Q 353 888 353 1747 
Q 353 2609 779 3096 
Q 1206 3584 1959 3584 
z
" transform="scale(0.015625)"/>
      <path id="DejaVuSans-72" d="M 2631 2963 
Q 2534 3019 2420 3045 
Q 2306 3072 2169 3072 
Q 1681 3072 1420 2755 
Q 1159 2438 1159 1844 
L 1159 0 
L 581 0 
L 581 3500 
L 1159 3500 
L 1159 2956 
Q 1341 3275 1631 3429 
Q 1922 3584 2338 3584 
Q 2397 3584 2469 3576 
Q 2541 3569 2628 3553 
L 2631 2963 
z
" transform="scale(0.015625)"/>
      <path id="DejaVuSans-2d" d="M 313 2009 
L 1997 2009 
L 1997 1497 
L 313 1497 
L 313 2009 
z
" transform="scale(0.015625)"/>
     </defs>
     <use xlink:href="#DejaVuSans-43"/>
     <use xlink:href="#DejaVuSans-68" x="69.824219"/>
     <use xlink:href="#DejaVuSans-6c" x="133.203125"/>
     <use xlink:href="#DejaVuSans-6f" x="160.986328"/>
     <use xlink:href="#DejaVuSans-72" x="222.167969"/>
     <use xlink:href="#DejaVuSans-2d" x="256.90625"/>
     <use xlink:href="#DejaVuSans-52" x="292.990234"/>
    </g>
   </g>
   <g id="text_4">
    <g id="patch_23">
     <path d="M 65.105329 51.462969 
L 92.24611 51.462969 
Q 95.54611 51.462969 95.54611 48.162969 
L 95.54611 37.517031 
Q 95.54611 34.217031 92.24611 34.217031 
L 65.105329 34.217031 
Q 61.805329 34.217031 61.805329 37.517031 
L 61.805329 48.162969 
Q 61.805329 51.462969 65.105329 51.462969 
z
" style="fill: #ffe5e5; stroke: #808080; stroke-width: 0.3; stroke-linejoin: miter"/>
    </g>
    <!-- 3xP3 -->
    <g transform="translate(65.105329 45.875312) scale(0.11 -0.11)">
     <defs>
      <path id="DejaVuSans-33" d="M 2597 2516 
Q 3050 2419 3304 2112 
Q 3559 1806 3559 1356 
Q 3559 666 3084 287 
Q 2609 -91 1734 -91 
Q 1441 -91 1130 -33 
Q 819 25 488 141 
L 488 750 
Q 750 597 1062 519 
Q 1375 441 1716 441 
Q 2309 441 2620 675 
Q 2931 909 2931 1356 
Q 2931 1769 2642 2001 
Q 2353 2234 1838 2234 
L 1294 2234 
L 1294 2753 
L 1863 2753 
Q 2328 2753 2575 2939 
Q 2822 3125 2822 3475 
Q 2822 3834 2567 4026 
Q 2313 4219 1838 4219 
Q 1578 4219 1281 4162 
Q 984 4106 628 3988 
L 628 4550 
Q 988 4650 1302 4700 
Q 1616 4750 1894 4750 
Q 2613 4750 3031 4423 
Q 3450 4097 3450 3541 
Q 3450 3153 3228 2886 
Q 3006 2619 2597 2516 
z
" transform="scale(0.015625)"/>
      <path id="DejaVuSans-78" d="M 3513 3500 
L 2247 1797 
L 3578 0 
L 2900 0 
L 1881 1375 
L 863 0 
L 184 0 
L 1544 1831 
L 300 3500 
L 978 3500 
L 1906 2253 
L 2834 3500 
L 3513 3500 
z
" transform="scale(0.015625)"/>
     </defs>
     <use xlink:href="#DejaVuSans-33"/>
     <use xlink:href="#DejaVuSans-78" x="63.623047"/>
     <use xlink:href="#DejaVuSans-50" x="122.802734"/>
     <use xlink:href="#DejaVuSans-33" x="183.105469"/>
    </g>
   </g>
   <g id="text_5">
    <g id="patch_24">
     <path d="M 182.563298 91.062969 
L 209.70408 91.062969 
Q 213.00408 91.062969 213.00408 87.762969 
L 213.00408 77.117031 
Q 213.00408 73.817031 209.70408 73.817031 
L 182.563298 73.817031 
Q 179.263298 73.817031 179.263298 77.117031 
L 179.263298 87.762969 
Q 179.263298 91.062969 182.563298 91.062969 
z
" style="fill: #ffe5e5; stroke: #808080; stroke-width: 0.3; stroke-linejoin: miter"/>
    </g>
    <!-- 3xP3 -->
    <g transform="translate(182.563298 85.475313) scale(0.11 -0.11)">
     <use xlink:href="#DejaVuSans-33"/>
     <use xlink:href="#DejaVuSans-78" x="63.623047"/>
     <use xlink:href="#DejaVuSans-50" x="122.802734"/>
     <use xlink:href="#DejaVuSans-33" x="183.105469"/>
    </g>
   </g>
   <g id="text_6">
    <g id="patch_25">
     <path d="M 33.801622 71.262969 
L 62.307091 71.262969 
Q 65.607091 71.262969 65.607091 67.962969 
L 65.607091 57.317031 
Q 65.607091 54.017031 62.307091 54.017031 
L 33.801622 54.017031 
Q 30.501622 54.017031 30.501622 57.317031 
L 30.501622 67.962969 
Q 30.501622 71.262969 33.801622 71.262969 
z
" style="fill: #ffe5e5; stroke: #808080; stroke-width: 0.3; stroke-linejoin: miter"/>
    </g>
    <!-- SV40 -->
    <g transform="translate(33.801622 65.675312) scale(0.11 -0.11)">
     <defs>
      <path id="DejaVuSans-53" d="M 3425 4513 
L 3425 3897 
Q 3066 4069 2747 4153 
Q 2428 4238 2131 4238 
Q 1616 4238 1336 4038 
Q 1056 3838 1056 3469 
Q 1056 3159 1242 3001 
Q 1428 2844 1947 2747 
L 2328 2669 
Q 3034 2534 3370 2195 
Q 3706 1856 3706 1288 
Q 3706 609 3251 259 
Q 2797 -91 1919 -91 
Q 1588 -91 1214 -16 
Q 841 59 441 206 
L 441 856 
Q 825 641 1194 531 
Q 1563 422 1919 422 
Q 2459 422 2753 634 
Q 3047 847 3047 1241 
Q 3047 1584 2836 1778 
Q 2625 1972 2144 2069 
L 1759 2144 
Q 1053 2284 737 2584 
Q 422 2884 422 3419 
Q 422 4038 858 4394 
Q 1294 4750 2059 4750 
Q 2388 4750 2728 4690 
Q 3069 4631 3425 4513 
z
" transform="scale(0.015625)"/>
      <path id="DejaVuSans-56" d="M 1831 0 
L 50 4666 
L 709 4666 
L 2188 738 
L 3669 4666 
L 4325 4666 
L 2547 0 
L 1831 0 
z
" transform="scale(0.015625)"/>
      <path id="DejaVuSans-34" d="M 2419 4116 
L 825 1625 
L 2419 1625 
L 2419 4116 
z
M 2253 4666 
L 3047 4666 
L 3047 1625 
L 3713 1625 
L 3713 1100 
L 3047 1100 
L 3047 0 
L 2419 0 
L 2419 1100 
L 313 1100 
L 313 1709 
L 2253 4666 
z
" transform="scale(0.015625)"/>
      <path id="DejaVuSans-30" d="M 2034 4250 
Q 1547 4250 1301 3770 
Q 1056 3291 1056 2328 
Q 1056 1369 1301 889 
Q 1547 409 2034 409 
Q 2525 409 2770 889 
Q 3016 1369 3016 2328 
Q 3016 3291 2770 3770 
Q 2525 4250 2034 4250 
z
M 2034 4750 
Q 2819 4750 3233 4129 
Q 3647 3509 3647 2328 
Q 3647 1150 3233 529 
Q 2819 -91 2034 -91 
Q 1250 -91 836 529 
Q 422 1150 422 2328 
Q 422 3509 836 4129 
Q 1250 4750 2034 4750 
z
" transform="scale(0.015625)"/>
     </defs>
     <use xlink:href="#DejaVuSans-53"/>
     <use xlink:href="#DejaVuSans-56" x="63.476562"/>
     <use xlink:href="#DejaVuSans-34" x="131.884766"/>
     <use xlink:href="#DejaVuSans-30" x="195.507812"/>
    </g>
   </g>
   <g id="text_7">
    <g id="patch_26">
     <path d="M 161.497089 110.862969 
L 190.002557 110.862969 
Q 193.302557 110.862969 193.302557 107.562969 
L 193.302557 96.917031 
Q 193.302557 93.617031 190.002557 93.617031 
L 161.497089 93.617031 
Q 158.197089 93.617031 158.197089 96.917031 
L 158.197089 107.562969 
Q 158.197089 110.862969 161.497089 110.862969 
z
" style="fill: #ffe5e5; stroke: #808080; stroke-width: 0.3; stroke-linejoin: miter"/>
    </g>
    <!-- SV40 -->
    <g transform="translate(161.497089 105.275313) scale(0.11 -0.11)">
     <use xlink:href="#DejaVuSans-53"/>
     <use xlink:href="#DejaVuSans-56" x="63.476562"/>
     <use xlink:href="#DejaVuSans-34" x="131.884766"/>
     <use xlink:href="#DejaVuSans-30" x="195.507812"/>
    </g>
   </g>
  </g>
 </g>
 <defs>
  <clipPath id="p93af80a8e3">
   <rect x="7.2" y="7.2" width="221.76" height="320.76"/>
  </clipPath>
 </defs>
</svg>
